<?xml version="1.0" encoding="UTF-8" standalone="no"?><svg xmlns="http://www.w3.org/2000/svg" xmlns:xlink="http://www.w3.org/1999/xlink" clip-rule="evenodd" stroke-miterlimit="4.00" viewBox="0 0 523 39"><desc>SVG generated by Keynote</desc><defs></defs><g transform="matrix(1.00, 0.00, -0.00, -1.00, 0.0, 39.0)"><text xml:space="preserve" font-family="Helvetica-Light" font-size="28.5" fill="#FEFFFF" transform="matrix(1.00, 0.00, -0.00, -1.00, 0.0, 13.1)">•</text><text xml:space="preserve" font-family="Helvetica-Light" font-size="38.0" fill="#FEFFFF" transform="matrix(1.00, 0.00, -0.00, -1.00, 35.0, 10.0)">J</text><text xml:space="preserve" font-family="Helvetica-Light" font-size="38.0" fill="#FEFFFF" transform="matrix(1.00, 0.00, -0.00, -1.00, 54.0, 10.0)">a</text><text xml:space="preserve" font-family="Helvetica-Light" font-size="38.0" fill="#FEFFFF" transform="matrix(1.00, 0.00, -0.00, -1.00, 75.1, 10.0)">v</text><text xml:space="preserve" font-family="Helvetica-Light" font-size="38.0" fill="#FEFFFF" transform="matrix(1.00, 0.00, -0.00, -1.00, 94.1, 10.0)">a</text><text xml:space="preserve" font-family="Helvetica-Light" font-size="38.0" fill="#FEFFFF" transform="matrix(1.00, 0.00, -0.00, -1.00, 115.3, 10.0)">s</text><text xml:space="preserve" font-family="Helvetica-Light" font-size="38.0" fill="#FEFFFF" transform="matrix(1.00, 0.00, -0.00, -1.00, 134.3, 10.0)">c</text><text xml:space="preserve" font-family="Helvetica-Light" font-size="38.0" fill="#FEFFFF" transform="matrix(1.00, 0.00, -0.00, -1.00, 155.4, 10.0)">r</text><text xml:space="preserve" font-family="Helvetica-Light" font-size="38.0" fill="#FEFFFF" transform="matrix(1.00, 0.00, -0.00, -1.00, 168.0, 10.0)">i</text><text xml:space="preserve" font-family="Helvetica-Light" font-size="38.0" fill="#FEFFFF" transform="matrix(1.00, 0.00, -0.00, -1.00, 176.5, 10.0)">p</text><text xml:space="preserve" font-family="Helvetica-Light" font-size="38.0" fill="#FEFFFF" transform="matrix(1.00, 0.00, -0.00, -1.00, 199.7, 10.0)">t</text><text xml:space="preserve" font-family="Helvetica-Light" font-size="38.0" fill="#FEFFFF" transform="matrix(1.00, 0.00, -0.00, -1.00, 210.3, 10.0)"> </text><text xml:space="preserve" font-family="Helvetica-Light" font-size="38.0" fill="#FEFFFF" transform="matrix(1.00, 0.00, -0.00, -1.00, 220.8, 10.0)">i</text><text xml:space="preserve" font-family="Helvetica-Light" font-size="38.0" fill="#FEFFFF" transform="matrix(1.00, 0.00, -0.00, -1.00, 229.3, 10.0)">s</text><text xml:space="preserve" font-family="Helvetica-Light" font-size="38.0" fill="#FEFFFF" transform="matrix(1.00, 0.00, -0.00, -1.00, 248.3, 10.0)"> </text><text xml:space="preserve" font-family="Helvetica-Light" font-size="38.0" fill="#FEFFFF" transform="matrix(1.00, 0.00, -0.00, -1.00, 258.8, 10.0)">s</text><text xml:space="preserve" font-family="Helvetica-Light" font-size="38.0" fill="#FEFFFF" transform="matrix(1.00, 0.00, -0.00, -1.00, 277.8, 10.0)">i</text><text xml:space="preserve" font-family="Helvetica-Light" font-size="38.0" fill="#FEFFFF" transform="matrix(1.00, 0.00, -0.00, -1.00, 286.3, 10.0)">n</text><text xml:space="preserve" font-family="Helvetica-Light" font-size="38.0" fill="#FEFFFF" transform="matrix(1.00, 0.00, -0.00, -1.00, 307.4, 10.0)">g</text><text xml:space="preserve" font-family="Helvetica-Light" font-size="38.0" fill="#FEFFFF" transform="matrix(1.00, 0.00, -0.00, -1.00, 330.6, 10.0)">l</text><text xml:space="preserve" font-family="Helvetica-Light" font-size="38.0" fill="#FEFFFF" transform="matrix(1.00, 0.00, -0.00, -1.00, 339.0, 10.0)">e</text><text xml:space="preserve" font-family="Helvetica-Light" font-size="38.0" fill="#FEFFFF" transform="matrix(1.00, 0.00, -0.00, -1.00, 360.2, 10.0)"> </text><text xml:space="preserve" font-family="Helvetica-Light" font-size="38.0" fill="#FEFFFF" transform="matrix(1.00, 0.00, -0.00, -1.00, 370.7, 10.0)">t</text><text xml:space="preserve" font-family="Helvetica-Light" font-size="38.0" fill="#FEFFFF" transform="matrix(1.00, 0.00, -0.00, -1.00, 381.3, 10.0)">h</text><text xml:space="preserve" font-family="Helvetica-Light" font-size="38.0" fill="#FEFFFF" transform="matrix(1.00, 0.00, -0.00, -1.00, 402.4, 10.0)">r</text><text xml:space="preserve" font-family="Helvetica-Light" font-size="38.0" fill="#FEFFFF" transform="matrix(1.00, 0.00, -0.00, -1.00, 414.4, 10.0)">e</text><text xml:space="preserve" font-family="Helvetica-Light" font-size="38.0" fill="#FEFFFF" transform="matrix(1.00, 0.00, -0.00, -1.00, 435.5, 10.0)">a</text><text xml:space="preserve" font-family="Helvetica-Light" font-size="38.0" fill="#FEFFFF" transform="matrix(1.00, 0.00, -0.00, -1.00, 456.6, 10.0)">d</text><text xml:space="preserve" font-family="Helvetica-Light" font-size="38.0" fill="#FEFFFF" transform="matrix(1.00, 0.00, -0.00, -1.00, 479.9, 10.0)">e</text><text xml:space="preserve" font-family="Helvetica-Light" font-size="38.0" fill="#FEFFFF" transform="matrix(1.00, 0.00, -0.00, -1.00, 501.0, 10.0)">d</text></g></svg>