<?xml version="1.0" encoding="UTF-8" standalone="no"?><svg xmlns="http://www.w3.org/2000/svg" xmlns:xlink="http://www.w3.org/1999/xlink" clip-rule="evenodd" stroke-miterlimit="4.00" viewBox="0 0 425 45"><desc>SVG generated by Keynote</desc><defs></defs><g transform="matrix(1.00, 0.00, -0.00, -1.00, 0.0, 45.0)"><path d="M 1.5 43.5 L 423.8 43.5 L 423.8 1.5 L 1.5 1.5 Z M 1.5 43.5 " fill="#FEFFFE"></path><g><clipPath id="clip-272"><path d="M -3.0 -3.0 L 428.3 -3.0 L 428.3 48.0 L -3.0 48.0 Z M -3.0 -3.0 "></path></clipPath><g clip-path="url(#clip-272)"><text xml:space="preserve" font-family="CourierNewPSMT" font-size="30.0" fill="#000000" transform="matrix(1.00, 0.00, -0.00, -1.00, 69.0, 14.0)">1</text><text xml:space="preserve" font-family="CourierNewPSMT" font-size="30.0" fill="#000000" transform="matrix(1.00, 0.00, -0.00, -1.00, 87.0, 14.0)">0</text><text xml:space="preserve" font-family="CourierNewPSMT" font-size="30.0" fill="#000000" transform="matrix(1.00, 0.00, -0.00, -1.00, 105.0, 14.0)"> </text><text xml:space="preserve" font-family="CourierNewPSMT" font-size="30.0" fill="#000000" transform="matrix(1.00, 0.00, -0.00, -1.00, 123.0, 14.0)">s</text><text xml:space="preserve" font-family="CourierNewPSMT" font-size="30.0" fill="#000000" transform="matrix(1.00, 0.00, -0.00, -1.00, 141.0, 14.0)">e</text><text xml:space="preserve" font-family="CourierNewPSMT" font-size="30.0" fill="#000000" transform="matrix(1.00, 0.00, -0.00, -1.00, 159.0, 14.0)">c</text><text xml:space="preserve" font-family="CourierNewPSMT" font-size="30.0" fill="#000000" transform="matrix(1.00, 0.00, -0.00, -1.00, 177.0, 14.0)">o</text><text xml:space="preserve" font-family="CourierNewPSMT" font-size="30.0" fill="#000000" transform="matrix(1.00, 0.00, -0.00, -1.00, 195.0, 14.0)">n</text><text xml:space="preserve" font-family="CourierNewPSMT" font-size="30.0" fill="#000000" transform="matrix(1.00, 0.00, -0.00, -1.00, 213.0, 14.0)">d</text><text xml:space="preserve" font-family="CourierNewPSMT" font-size="30.0" fill="#000000" transform="matrix(1.00, 0.00, -0.00, -1.00, 231.1, 14.0)">s</text><text xml:space="preserve" font-family="CourierNewPSMT" font-size="30.0" fill="#000000" transform="matrix(1.00, 0.00, -0.00, -1.00, 249.1, 14.0)"> </text><text xml:space="preserve" font-family="CourierNewPSMT" font-size="30.0" fill="#000000" transform="matrix(1.00, 0.00, -0.00, -1.00, 267.1, 14.0)">l</text><text xml:space="preserve" font-family="CourierNewPSMT" font-size="30.0" fill="#000000" transform="matrix(1.00, 0.00, -0.00, -1.00, 285.1, 14.0)">a</text><text xml:space="preserve" font-family="CourierNewPSMT" font-size="30.0" fill="#000000" transform="matrix(1.00, 0.00, -0.00, -1.00, 303.1, 14.0)">t</text><text xml:space="preserve" font-family="CourierNewPSMT" font-size="30.0" fill="#000000" transform="matrix(1.00, 0.00, -0.00, -1.00, 321.1, 14.0)">e</text><text xml:space="preserve" font-family="CourierNewPSMT" font-size="30.0" fill="#000000" transform="matrix(1.00, 0.00, -0.00, -1.00, 339.1, 14.0)">r</text></g></g></g></svg>