<?xml version="1.0" encoding="UTF-8" standalone="no"?><svg xmlns="http://www.w3.org/2000/svg" xmlns:xlink="http://www.w3.org/1999/xlink" clip-rule="evenodd" stroke-miterlimit="4.00" viewBox="0 0 793 76"><desc>SVG generated by Keynote</desc><defs></defs><g transform="matrix(1.00, 0.00, -0.00, -1.00, 0.0, 76.0)"><text xml:space="preserve" font-family="Helvetica-Light" font-size="27.9" fill="#FEFFFF" transform="matrix(1.00, 0.00, -0.00, -1.00, 0.0, 51.4)">•</text><text xml:space="preserve" font-family="Helvetica-Light" font-size="37.2" fill="#FEFFFF" transform="matrix(1.00, 0.00, -0.00, -1.00, 34.0, 48.0)">N</text><text xml:space="preserve" font-family="Helvetica-Light" font-size="37.2" fill="#FEFFFF" transform="matrix(1.00, 0.00, -0.00, -1.00, 60.9, 48.0)">o</text><text xml:space="preserve" font-family="Helvetica-Light" font-size="37.2" fill="#FEFFFF" transform="matrix(1.00, 0.00, -0.00, -1.00, 81.6, 48.0)">,</text><text xml:space="preserve" font-family="Helvetica-Light" font-size="37.2" fill="#FEFFFF" transform="matrix(1.00, 0.00, -0.00, -1.00, 91.9, 48.0)"> </text><text xml:space="preserve" font-family="Helvetica-Light" font-size="37.2" fill="#FEFFFF" transform="matrix(1.00, 0.00, -0.00, -1.00, 102.3, 48.0)">n</text><text xml:space="preserve" font-family="Helvetica-Light" font-size="37.2" fill="#FEFFFF" transform="matrix(1.00, 0.00, -0.00, -1.00, 123.0, 48.0)">o</text><text xml:space="preserve" font-family="Helvetica-Light" font-size="37.2" fill="#FEFFFF" transform="matrix(1.00, 0.00, -0.00, -1.00, 143.7, 48.0)">t</text><text xml:space="preserve" font-family="Helvetica-Light" font-size="37.2" fill="#FEFFFF" transform="matrix(1.00, 0.00, -0.00, -1.00, 154.1, 48.0)"> </text><text xml:space="preserve" font-family="Helvetica-Light" font-size="37.2" fill="#FEFFFF" transform="matrix(1.00, 0.00, -0.00, -1.00, 164.4, 48.0)">t</text><text xml:space="preserve" font-family="Helvetica-Light" font-size="37.2" fill="#FEFFFF" transform="matrix(1.00, 0.00, -0.00, -1.00, 174.8, 48.0)">h</text><text xml:space="preserve" font-family="Helvetica-Light" font-size="37.2" fill="#FEFFFF" transform="matrix(1.00, 0.00, -0.00, -1.00, 195.5, 48.0)">e</text><text xml:space="preserve" font-family="Helvetica-Light" font-size="37.2" fill="#FEFFFF" transform="matrix(1.00, 0.00, -0.00, -1.00, 216.2, 48.0)"> </text><text xml:space="preserve" font-family="Helvetica-Light" font-size="37.2" fill="#FEFFFF" transform="matrix(1.00, 0.00, -0.00, -1.00, 226.5, 48.0)">c</text><text xml:space="preserve" font-family="Helvetica-Light" font-size="37.2" fill="#FEFFFF" transform="matrix(1.00, 0.00, -0.00, -1.00, 247.2, 48.0)">l</text><text xml:space="preserve" font-family="Helvetica-Light" font-size="37.2" fill="#FEFFFF" transform="matrix(1.00, 0.00, -0.00, -1.00, 255.5, 48.0)">o</text><text xml:space="preserve" font-family="Helvetica-Light" font-size="37.2" fill="#FEFFFF" transform="matrix(1.00, 0.00, -0.00, -1.00, 276.2, 48.0)">t</text><text xml:space="preserve" font-family="Helvetica-Light" font-size="37.2" fill="#FEFFFF" transform="matrix(1.00, 0.00, -0.00, -1.00, 286.6, 48.0)">h</text><text xml:space="preserve" font-family="Helvetica-Light" font-size="37.2" fill="#FEFFFF" transform="matrix(1.00, 0.00, -0.00, -1.00, 307.3, 48.0)">e</text><text xml:space="preserve" font-family="Helvetica-Light" font-size="37.2" fill="#FEFFFF" transform="matrix(1.00, 0.00, -0.00, -1.00, 328.0, 48.0)">s</text><text xml:space="preserve" font-family="Helvetica-Light" font-size="37.2" fill="#FEFFFF" transform="matrix(1.00, 0.00, -0.00, -1.00, 346.6, 48.0)"> </text><text xml:space="preserve" font-family="Helvetica-Light" font-size="37.2" fill="#FEFFFF" transform="matrix(1.00, 0.00, -0.00, -1.00, 356.9, 48.0)">y</text><text xml:space="preserve" font-family="Helvetica-Light" font-size="37.2" fill="#FEFFFF" transform="matrix(1.00, 0.00, -0.00, -1.00, 375.6, 48.0)">o</text><text xml:space="preserve" font-family="Helvetica-Light" font-size="37.2" fill="#FEFFFF" transform="matrix(1.00, 0.00, -0.00, -1.00, 396.3, 48.0)">u</text><text xml:space="preserve" font-family="Helvetica-Light" font-size="37.2" fill="#FEFFFF" transform="matrix(1.00, 0.00, -0.00, -1.00, 417.0, 48.0)">r</text><text xml:space="preserve" font-family="Helvetica-Light" font-size="37.2" fill="#FEFFFF" transform="matrix(1.00, 0.00, -0.00, -1.00, 429.4, 48.0)"> </text><text xml:space="preserve" font-family="Helvetica-Light" font-size="37.2" fill="#FEFFFF" transform="matrix(1.00, 0.00, -0.00, -1.00, 439.7, 48.0)">p</text><text xml:space="preserve" font-family="Helvetica-Light" font-size="37.2" fill="#FEFFFF" transform="matrix(1.00, 0.00, -0.00, -1.00, 462.5, 48.0)">a</text><text xml:space="preserve" font-family="Helvetica-Light" font-size="37.2" fill="#FEFFFF" transform="matrix(1.00, 0.00, -0.00, -1.00, 483.2, 48.0)">r</text><text xml:space="preserve" font-family="Helvetica-Light" font-size="37.2" fill="#FEFFFF" transform="matrix(1.00, 0.00, -0.00, -1.00, 496.3, 48.0)">t</text><text xml:space="preserve" font-family="Helvetica-Light" font-size="37.2" fill="#FEFFFF" transform="matrix(1.00, 0.00, -0.00, -1.00, 506.6, 48.0)">n</text><text xml:space="preserve" font-family="Helvetica-Light" font-size="37.2" fill="#FEFFFF" transform="matrix(1.00, 0.00, -0.00, -1.00, 527.3, 48.0)">e</text><text xml:space="preserve" font-family="Helvetica-Light" font-size="37.2" fill="#FEFFFF" transform="matrix(1.00, 0.00, -0.00, -1.00, 548.0, 48.0)">r</text><text xml:space="preserve" font-family="Helvetica-Light" font-size="37.2" fill="#FEFFFF" transform="matrix(1.00, 0.00, -0.00, -1.00, 560.4, 48.0)"> </text><text xml:space="preserve" font-family="Helvetica-Light" font-size="37.2" fill="#FEFFFF" transform="matrix(1.00, 0.00, -0.00, -1.00, 570.8, 48.0)">s</text><text xml:space="preserve" font-family="Helvetica-Light" font-size="37.2" fill="#FEFFFF" transform="matrix(1.00, 0.00, -0.00, -1.00, 589.4, 48.0)">e</text><text xml:space="preserve" font-family="Helvetica-Light" font-size="37.2" fill="#FEFFFF" transform="matrix(1.00, 0.00, -0.00, -1.00, 610.1, 48.0)">c</text><text xml:space="preserve" font-family="Helvetica-Light" font-size="37.2" fill="#FEFFFF" transform="matrix(1.00, 0.00, -0.00, -1.00, 630.8, 48.0)">r</text><text xml:space="preserve" font-family="Helvetica-Light" font-size="37.2" fill="#FEFFFF" transform="matrix(1.00, 0.00, -0.00, -1.00, 642.5, 48.0)">e</text><text xml:space="preserve" font-family="Helvetica-Light" font-size="37.2" fill="#FEFFFF" transform="matrix(1.00, 0.00, -0.00, -1.00, 663.2, 48.0)">t</text><text xml:space="preserve" font-family="Helvetica-Light" font-size="37.2" fill="#FEFFFF" transform="matrix(1.00, 0.00, -0.00, -1.00, 673.6, 48.0)">l</text><text xml:space="preserve" font-family="Helvetica-Light" font-size="37.2" fill="#FEFFFF" transform="matrix(1.00, 0.00, -0.00, -1.00, 681.9, 48.0)">y</text><text xml:space="preserve" font-family="Helvetica-Light" font-size="37.2" fill="#FEFFFF" transform="matrix(1.00, 0.00, -0.00, -1.00, 700.5, 48.0)"> </text><text xml:space="preserve" font-family="Helvetica-Light" font-size="37.2" fill="#FEFFFF" transform="matrix(1.00, 0.00, -0.00, -1.00, 710.8, 48.0)">b</text><text xml:space="preserve" font-family="Helvetica-Light" font-size="37.2" fill="#FEFFFF" transform="matrix(1.00, 0.00, -0.00, -1.00, 733.6, 48.0)">u</text><text xml:space="preserve" font-family="Helvetica-Light" font-size="37.2" fill="#FEFFFF" transform="matrix(1.00, 0.00, -0.00, -1.00, 754.3, 48.0)">y</text><text xml:space="preserve" font-family="Helvetica-Light" font-size="37.2" fill="#FEFFFF" transform="matrix(1.00, 0.00, -0.00, -1.00, 772.9, 48.0)">s</text><text xml:space="preserve" font-family="Helvetica-Light" font-size="37.2" fill="#FEFFFF" transform="matrix(1.00, 0.00, -0.00, -1.00, 791.5, 48.0)"> </text><text xml:space="preserve" font-family="Helvetica-Light" font-size="37.2" fill="#FEFFFF" transform="matrix(1.00, 0.00, -0.00, -1.00, 34.0, 2.0)">a</text><text xml:space="preserve" font-family="Helvetica-Light" font-size="37.2" fill="#FEFFFF" transform="matrix(1.00, 0.00, -0.00, -1.00, 54.7, 2.0)">n</text><text xml:space="preserve" font-family="Helvetica-Light" font-size="37.2" fill="#FEFFFF" transform="matrix(1.00, 0.00, -0.00, -1.00, 75.4, 2.0)">d</text><text xml:space="preserve" font-family="Helvetica-Light" font-size="37.2" fill="#FEFFFF" transform="matrix(1.00, 0.00, -0.00, -1.00, 98.2, 2.0)"> </text><text xml:space="preserve" font-family="Helvetica-Light" font-size="37.2" fill="#FEFFFF" transform="matrix(1.00, 0.00, -0.00, -1.00, 108.5, 2.0)">h</text><text xml:space="preserve" font-family="Helvetica-Light" font-size="37.2" fill="#FEFFFF" transform="matrix(1.00, 0.00, -0.00, -1.00, 129.2, 2.0)">i</text><text xml:space="preserve" font-family="Helvetica-Light" font-size="37.2" fill="#FEFFFF" transform="matrix(1.00, 0.00, -0.00, -1.00, 137.5, 2.0)">d</text><text xml:space="preserve" font-family="Helvetica-Light" font-size="37.2" fill="#FEFFFF" transform="matrix(1.00, 0.00, -0.00, -1.00, 160.2, 2.0)">e</text><text xml:space="preserve" font-family="Helvetica-Light" font-size="37.2" fill="#FEFFFF" transform="matrix(1.00, 0.00, -0.00, -1.00, 180.9, 2.0)">s</text></g></svg>