<?xml version="1.0" encoding="UTF-8" standalone="no"?><svg xmlns="http://www.w3.org/2000/svg" xmlns:xlink="http://www.w3.org/1999/xlink" clip-rule="evenodd" stroke-miterlimit="4.00" viewBox="0 0 858 38"><desc>SVG generated by Keynote</desc><defs></defs><g transform="matrix(1.00, 0.00, -0.00, -1.00, 0.0, 38.0)"><text xml:space="preserve" font-family="Helvetica-Light" font-size="27.9" fill="#FEFFFF" transform="matrix(1.00, 0.00, -0.00, -1.00, 0.0, 13.3)">•</text><text xml:space="preserve" font-family="Helvetica-Light" font-size="37.2" fill="#FEFFFF" transform="matrix(1.00, 0.00, -0.00, -1.00, 34.0, 9.0)">s</text><text xml:space="preserve" font-family="Helvetica-Light" font-size="37.2" fill="#FEFFFF" transform="matrix(1.00, 0.00, -0.00, -1.00, 52.6, 9.0)">e</text><text xml:space="preserve" font-family="Helvetica-Light" font-size="37.2" fill="#FEFFFF" transform="matrix(1.00, 0.00, -0.00, -1.00, 73.3, 9.0)">t</text><text xml:space="preserve" font-family="Helvetica-Light" font-size="37.2" fill="#FEFFFF" transform="matrix(1.00, 0.00, -0.00, -1.00, 83.7, 9.0)">T</text><text xml:space="preserve" font-family="Helvetica-Light" font-size="37.2" fill="#FEFFFF" transform="matrix(1.00, 0.00, -0.00, -1.00, 104.4, 9.0)">i</text><text xml:space="preserve" font-family="Helvetica-Light" font-size="37.2" fill="#FEFFFF" transform="matrix(1.00, 0.00, -0.00, -1.00, 112.7, 9.0)">m</text><text xml:space="preserve" font-family="Helvetica-Light" font-size="37.2" fill="#FEFFFF" transform="matrix(1.00, 0.00, -0.00, -1.00, 143.7, 9.0)">e</text><text xml:space="preserve" font-family="Helvetica-Light" font-size="37.2" fill="#FEFFFF" transform="matrix(1.00, 0.00, -0.00, -1.00, 164.4, 9.0)">o</text><text xml:space="preserve" font-family="Helvetica-Light" font-size="37.2" fill="#FEFFFF" transform="matrix(1.00, 0.00, -0.00, -1.00, 185.1, 9.0)">u</text><text xml:space="preserve" font-family="Helvetica-Light" font-size="37.2" fill="#FEFFFF" transform="matrix(1.00, 0.00, -0.00, -1.00, 205.8, 9.0)">t</text><text xml:space="preserve" font-family="Helvetica-Light" font-size="37.2" fill="#FEFFFF" transform="matrix(1.00, 0.00, -0.00, -1.00, 216.1, 9.0)">,</text><text xml:space="preserve" font-family="Helvetica-Light" font-size="37.2" fill="#FEFFFF" transform="matrix(1.00, 0.00, -0.00, -1.00, 226.5, 9.0)"> </text><text xml:space="preserve" font-family="Helvetica-Light" font-size="37.2" fill="#FEFFFF" transform="matrix(1.00, 0.00, -0.00, -1.00, 236.8, 9.0)">X</text><text xml:space="preserve" font-family="Helvetica-Light" font-size="37.2" fill="#FEFFFF" transform="matrix(1.00, 0.00, -0.00, -1.00, 259.6, 9.0)">H</text><text xml:space="preserve" font-family="Helvetica-Light" font-size="37.2" fill="#FEFFFF" transform="matrix(1.00, 0.00, -0.00, -1.00, 286.5, 9.0)">R</text><text xml:space="preserve" font-family="Helvetica-Light" font-size="37.2" fill="#FEFFFF" transform="matrix(1.00, 0.00, -0.00, -1.00, 311.3, 9.0)"> </text><text xml:space="preserve" font-family="Helvetica-Light" font-size="37.2" fill="#FEFFFF" transform="matrix(1.00, 0.00, -0.00, -1.00, 321.7, 9.0)">e</text><text xml:space="preserve" font-family="Helvetica-Light" font-size="37.2" fill="#FEFFFF" transform="matrix(1.00, 0.00, -0.00, -1.00, 342.4, 9.0)">t</text><text xml:space="preserve" font-family="Helvetica-Light" font-size="37.2" fill="#FEFFFF" transform="matrix(1.00, 0.00, -0.00, -1.00, 352.7, 9.0)">c</text><text xml:space="preserve" font-family="Helvetica-Light" font-size="37.2" fill="#FEFFFF" transform="matrix(1.00, 0.00, -0.00, -1.00, 373.4, 9.0)"> </text><text xml:space="preserve" font-family="Helvetica-Light" font-size="37.2" fill="#FEFFFF" transform="matrix(1.00, 0.00, -0.00, -1.00, 383.8, 9.0)">a</text><text xml:space="preserve" font-family="Helvetica-Light" font-size="37.2" fill="#FEFFFF" transform="matrix(1.00, 0.00, -0.00, -1.00, 404.5, 9.0)">r</text><text xml:space="preserve" font-family="Helvetica-Light" font-size="37.2" fill="#FEFFFF" transform="matrix(1.00, 0.00, -0.00, -1.00, 416.2, 9.0)">e</text><text xml:space="preserve" font-family="Helvetica-Light" font-size="37.2" fill="#FEFFFF" transform="matrix(1.00, 0.00, -0.00, -1.00, 436.9, 9.0)"> </text><text xml:space="preserve" font-family="Helvetica-Light" font-size="37.2" fill="#FEFFFF" transform="matrix(1.00, 0.00, -0.00, -1.00, 447.3, 9.0)">n</text><text xml:space="preserve" font-family="Helvetica-Light" font-size="37.2" fill="#FEFFFF" transform="matrix(1.00, 0.00, -0.00, -1.00, 468.0, 9.0)">o</text><text xml:space="preserve" font-family="Helvetica-Light" font-size="37.2" fill="#FEFFFF" transform="matrix(1.00, 0.00, -0.00, -1.00, 488.7, 9.0)">t</text><text xml:space="preserve" font-family="Helvetica-Light" font-size="37.2" fill="#FEFFFF" transform="matrix(1.00, 0.00, -0.00, -1.00, 499.1, 9.0)"> </text><text xml:space="preserve" font-family="Helvetica-Light" font-size="37.2" fill="#FEFFFF" transform="matrix(1.00, 0.00, -0.00, -1.00, 509.4, 9.0)">p</text><text xml:space="preserve" font-family="Helvetica-Light" font-size="37.2" fill="#FEFFFF" transform="matrix(1.00, 0.00, -0.00, -1.00, 532.2, 9.0)">a</text><text xml:space="preserve" font-family="Helvetica-Light" font-size="37.2" fill="#FEFFFF" transform="matrix(1.00, 0.00, -0.00, -1.00, 552.9, 9.0)">r</text><text xml:space="preserve" font-family="Helvetica-Light" font-size="37.2" fill="#FEFFFF" transform="matrix(1.00, 0.00, -0.00, -1.00, 565.9, 9.0)">t</text><text xml:space="preserve" font-family="Helvetica-Light" font-size="37.2" fill="#FEFFFF" transform="matrix(1.00, 0.00, -0.00, -1.00, 576.3, 9.0)"> </text><text xml:space="preserve" font-family="Helvetica-Light" font-size="37.2" fill="#FEFFFF" transform="matrix(1.00, 0.00, -0.00, -1.00, 586.6, 9.0)">o</text><text xml:space="preserve" font-family="Helvetica-Light" font-size="37.2" fill="#FEFFFF" transform="matrix(1.00, 0.00, -0.00, -1.00, 607.3, 9.0)">f</text><text xml:space="preserve" font-family="Helvetica-Light" font-size="37.2" fill="#FEFFFF" transform="matrix(1.00, 0.00, -0.00, -1.00, 617.7, 9.0)"> </text><text xml:space="preserve" font-family="Helvetica-Light" font-size="37.2" fill="#FEFFFF" transform="matrix(1.00, 0.00, -0.00, -1.00, 628.1, 9.0)">t</text><text xml:space="preserve" font-family="Helvetica-Light" font-size="37.2" fill="#FEFFFF" transform="matrix(1.00, 0.00, -0.00, -1.00, 638.4, 9.0)">h</text><text xml:space="preserve" font-family="Helvetica-Light" font-size="37.2" fill="#FEFFFF" transform="matrix(1.00, 0.00, -0.00, -1.00, 659.1, 9.0)">e</text><text xml:space="preserve" font-family="Helvetica-Light" font-size="37.2" fill="#FEFFFF" transform="matrix(1.00, 0.00, -0.00, -1.00, 679.8, 9.0)"> </text><text xml:space="preserve" font-family="Helvetica-Light" font-size="37.2" fill="#FEFFFF" transform="matrix(1.00, 0.00, -0.00, -1.00, 690.2, 9.0)">V</text><text xml:space="preserve" font-family="Helvetica-Light" font-size="37.2" fill="#FEFFFF" transform="matrix(1.00, 0.00, -0.00, -1.00, 712.9, 9.0)">8</text><text xml:space="preserve" font-family="Helvetica-Light" font-size="37.2" fill="#FEFFFF" transform="matrix(1.00, 0.00, -0.00, -1.00, 733.6, 9.0)"> </text><text xml:space="preserve" font-family="Helvetica-Light" font-size="37.2" fill="#FEFFFF" transform="matrix(1.00, 0.00, -0.00, -1.00, 744.0, 9.0)">e</text><text xml:space="preserve" font-family="Helvetica-Light" font-size="37.2" fill="#FEFFFF" transform="matrix(1.00, 0.00, -0.00, -1.00, 764.7, 9.0)">n</text><text xml:space="preserve" font-family="Helvetica-Light" font-size="37.2" fill="#FEFFFF" transform="matrix(1.00, 0.00, -0.00, -1.00, 785.4, 9.0)">g</text><text xml:space="preserve" font-family="Helvetica-Light" font-size="37.2" fill="#FEFFFF" transform="matrix(1.00, 0.00, -0.00, -1.00, 808.1, 9.0)">i</text><text xml:space="preserve" font-family="Helvetica-Light" font-size="37.2" fill="#FEFFFF" transform="matrix(1.00, 0.00, -0.00, -1.00, 816.4, 9.0)">n</text><text xml:space="preserve" font-family="Helvetica-Light" font-size="37.2" fill="#FEFFFF" transform="matrix(1.00, 0.00, -0.00, -1.00, 837.1, 9.0)">e</text></g></svg>