<?xml version="1.0" encoding="UTF-8" standalone="no"?><svg xmlns="http://www.w3.org/2000/svg" xmlns:xlink="http://www.w3.org/1999/xlink" clip-rule="evenodd" stroke-miterlimit="4.00" viewBox="0 0 659 37"><desc>SVG generated by Keynote</desc><defs></defs><g transform="matrix(1.00, 0.00, -0.00, -1.00, 0.0, 37.0)"><text xml:space="preserve" font-family="Helvetica-Light" font-size="27.9" fill="#FEFFFF" transform="matrix(1.00, 0.00, -0.00, -1.00, 0.0, 12.9)">•</text><text xml:space="preserve" font-family="Helvetica-Light" font-size="37.2" fill="#FEFFFF" transform="matrix(1.00, 0.00, -0.00, -1.00, 34.0, 9.0)">T</text><text xml:space="preserve" font-family="Helvetica-Light" font-size="37.2" fill="#FEFFFF" transform="matrix(1.00, 0.00, -0.00, -1.00, 54.7, 9.0)">h</text><text xml:space="preserve" font-family="Helvetica-Light" font-size="37.2" fill="#FEFFFF" transform="matrix(1.00, 0.00, -0.00, -1.00, 75.4, 9.0)">e</text><text xml:space="preserve" font-family="Helvetica-Light" font-size="37.2" fill="#FEFFFF" transform="matrix(1.00, 0.00, -0.00, -1.00, 96.1, 9.0)"> </text><text xml:space="preserve" font-family="Helvetica-Light" font-size="37.2" fill="#FEFFFF" transform="matrix(1.00, 0.00, -0.00, -1.00, 106.5, 9.0)">c</text><text xml:space="preserve" font-family="Helvetica-Light" font-size="37.2" fill="#FEFFFF" transform="matrix(1.00, 0.00, -0.00, -1.00, 127.2, 9.0)">a</text><text xml:space="preserve" font-family="Helvetica-Light" font-size="37.2" fill="#FEFFFF" transform="matrix(1.00, 0.00, -0.00, -1.00, 147.9, 9.0)">l</text><text xml:space="preserve" font-family="Helvetica-Light" font-size="37.2" fill="#FEFFFF" transform="matrix(1.00, 0.00, -0.00, -1.00, 156.1, 9.0)">l</text><text xml:space="preserve" font-family="Helvetica-Light" font-size="37.2" fill="#FEFFFF" transform="matrix(1.00, 0.00, -0.00, -1.00, 164.4, 9.0)">s</text><text xml:space="preserve" font-family="Helvetica-Light" font-size="37.2" fill="#FEFFFF" transform="matrix(1.00, 0.00, -0.00, -1.00, 183.0, 9.0)"> </text><text xml:space="preserve" font-family="Helvetica-Light" font-size="37.2" fill="#FEFFFF" transform="matrix(1.00, 0.00, -0.00, -1.00, 193.4, 9.0)">e</text><text xml:space="preserve" font-family="Helvetica-Light" font-size="37.2" fill="#FEFFFF" transform="matrix(1.00, 0.00, -0.00, -1.00, 214.1, 9.0)">x</text><text xml:space="preserve" font-family="Helvetica-Light" font-size="37.2" fill="#FEFFFF" transform="matrix(1.00, 0.00, -0.00, -1.00, 232.7, 9.0)">e</text><text xml:space="preserve" font-family="Helvetica-Light" font-size="37.2" fill="#FEFFFF" transform="matrix(1.00, 0.00, -0.00, -1.00, 253.4, 9.0)">c</text><text xml:space="preserve" font-family="Helvetica-Light" font-size="37.2" fill="#FEFFFF" transform="matrix(1.00, 0.00, -0.00, -1.00, 274.1, 9.0)">u</text><text xml:space="preserve" font-family="Helvetica-Light" font-size="37.2" fill="#FEFFFF" transform="matrix(1.00, 0.00, -0.00, -1.00, 294.8, 9.0)">t</text><text xml:space="preserve" font-family="Helvetica-Light" font-size="37.2" fill="#FEFFFF" transform="matrix(1.00, 0.00, -0.00, -1.00, 305.2, 9.0)">e</text><text xml:space="preserve" font-family="Helvetica-Light" font-size="37.2" fill="#FEFFFF" transform="matrix(1.00, 0.00, -0.00, -1.00, 325.9, 9.0)"> </text><text xml:space="preserve" font-family="Helvetica-Light" font-size="37.2" fill="#FEFFFF" transform="matrix(1.00, 0.00, -0.00, -1.00, 336.2, 9.0)">i</text><text xml:space="preserve" font-family="Helvetica-Light" font-size="37.2" fill="#FEFFFF" transform="matrix(1.00, 0.00, -0.00, -1.00, 344.5, 9.0)">n</text><text xml:space="preserve" font-family="Helvetica-Light" font-size="37.2" fill="#FEFFFF" transform="matrix(1.00, 0.00, -0.00, -1.00, 365.2, 9.0)"> </text><text xml:space="preserve" font-family="Helvetica-Light" font-size="37.2" fill="#FEFFFF" transform="matrix(1.00, 0.00, -0.00, -1.00, 375.6, 9.0)">s</text><text xml:space="preserve" font-family="Helvetica-Light" font-size="37.2" fill="#FEFFFF" transform="matrix(1.00, 0.00, -0.00, -1.00, 394.2, 9.0)">e</text><text xml:space="preserve" font-family="Helvetica-Light" font-size="37.2" fill="#FEFFFF" transform="matrix(1.00, 0.00, -0.00, -1.00, 414.9, 9.0)">p</text><text xml:space="preserve" font-family="Helvetica-Light" font-size="37.2" fill="#FEFFFF" transform="matrix(1.00, 0.00, -0.00, -1.00, 437.6, 9.0)">a</text><text xml:space="preserve" font-family="Helvetica-Light" font-size="37.2" fill="#FEFFFF" transform="matrix(1.00, 0.00, -0.00, -1.00, 458.3, 9.0)">r</text><text xml:space="preserve" font-family="Helvetica-Light" font-size="37.2" fill="#FEFFFF" transform="matrix(1.00, 0.00, -0.00, -1.00, 470.8, 9.0)">a</text><text xml:space="preserve" font-family="Helvetica-Light" font-size="37.2" fill="#FEFFFF" transform="matrix(1.00, 0.00, -0.00, -1.00, 491.5, 9.0)">t</text><text xml:space="preserve" font-family="Helvetica-Light" font-size="37.2" fill="#FEFFFF" transform="matrix(1.00, 0.00, -0.00, -1.00, 501.8, 9.0)">e</text><text xml:space="preserve" font-family="Helvetica-Light" font-size="37.2" fill="#FEFFFF" transform="matrix(1.00, 0.00, -0.00, -1.00, 522.5, 9.0)"> </text><text xml:space="preserve" font-family="Helvetica-Light" font-size="37.2" fill="#FEFFFF" transform="matrix(1.00, 0.00, -0.00, -1.00, 532.9, 9.0)">t</text><text xml:space="preserve" font-family="Helvetica-Light" font-size="37.2" fill="#FEFFFF" transform="matrix(1.00, 0.00, -0.00, -1.00, 543.2, 9.0)">h</text><text xml:space="preserve" font-family="Helvetica-Light" font-size="37.2" fill="#FEFFFF" transform="matrix(1.00, 0.00, -0.00, -1.00, 563.9, 9.0)">r</text><text xml:space="preserve" font-family="Helvetica-Light" font-size="37.2" fill="#FEFFFF" transform="matrix(1.00, 0.00, -0.00, -1.00, 575.7, 9.0)">e</text><text xml:space="preserve" font-family="Helvetica-Light" font-size="37.2" fill="#FEFFFF" transform="matrix(1.00, 0.00, -0.00, -1.00, 596.4, 9.0)">a</text><text xml:space="preserve" font-family="Helvetica-Light" font-size="37.2" fill="#FEFFFF" transform="matrix(1.00, 0.00, -0.00, -1.00, 617.1, 9.0)">d</text><text xml:space="preserve" font-family="Helvetica-Light" font-size="37.2" fill="#FEFFFF" transform="matrix(1.00, 0.00, -0.00, -1.00, 639.8, 9.0)">s</text></g></svg>