<?xml version="1.0" encoding="UTF-8" standalone="no"?><svg xmlns="http://www.w3.org/2000/svg" xmlns:xlink="http://www.w3.org/1999/xlink" clip-rule="evenodd" stroke-miterlimit="4.00" viewBox="0 0 1024 768"><desc>SVG generated by Keynote</desc><defs></defs><g transform="matrix(1.00, 0.00, -0.00, -1.00, 0.0, 768.0)"><path d="M 0.0 768.0 L 1024.0 768.0 L 1024.0 0.0 L 0.0 0.0 Z M 0.0 768.0 " fill="#000000"></path><text xml:space="preserve" font-family="Helvetica-Light" font-size="80.0" fill="#FEFFFF" transform="matrix(1.00, 0.00, -0.00, -1.00, 235.0, 633.0)">H</text><text xml:space="preserve" font-family="Helvetica-Light" font-size="80.0" fill="#FEFFFF" transform="matrix(1.00, 0.00, -0.00, -1.00, 292.8, 633.0)">i</text><text xml:space="preserve" font-family="Helvetica-Light" font-size="80.0" fill="#FEFFFF" transform="matrix(1.00, 0.00, -0.00, -1.00, 310.5, 633.0)">d</text><text xml:space="preserve" font-family="Helvetica-Light" font-size="80.0" fill="#FEFFFF" transform="matrix(1.00, 0.00, -0.00, -1.00, 359.4, 633.0)">d</text><text xml:space="preserve" font-family="Helvetica-Light" font-size="80.0" fill="#FEFFFF" transform="matrix(1.00, 0.00, -0.00, -1.00, 408.3, 633.0)">e</text><text xml:space="preserve" font-family="Helvetica-Light" font-size="80.0" fill="#FEFFFF" transform="matrix(1.00, 0.00, -0.00, -1.00, 452.8, 633.0)">n</text><text xml:space="preserve" font-family="Helvetica-Light" font-size="80.0" fill="#FEFFFF" transform="matrix(1.00, 0.00, -0.00, -1.00, 497.2, 633.0)"> </text><text xml:space="preserve" font-family="Helvetica-Light" font-size="80.0" fill="#FEFFFF" transform="matrix(1.00, 0.00, -0.00, -1.00, 519.5, 633.0)">t</text><text xml:space="preserve" font-family="Helvetica-Light" font-size="80.0" fill="#FEFFFF" transform="matrix(1.00, 0.00, -0.00, -1.00, 541.7, 633.0)">h</text><text xml:space="preserve" font-family="Helvetica-Light" font-size="80.0" fill="#FEFFFF" transform="matrix(1.00, 0.00, -0.00, -1.00, 586.2, 633.0)">r</text><text xml:space="preserve" font-family="Helvetica-Light" font-size="80.0" fill="#FEFFFF" transform="matrix(1.00, 0.00, -0.00, -1.00, 611.4, 633.0)">e</text><text xml:space="preserve" font-family="Helvetica-Light" font-size="80.0" fill="#FEFFFF" transform="matrix(1.00, 0.00, -0.00, -1.00, 655.9, 633.0)">a</text><text xml:space="preserve" font-family="Helvetica-Light" font-size="80.0" fill="#FEFFFF" transform="matrix(1.00, 0.00, -0.00, -1.00, 700.4, 633.0)">d</text><text xml:space="preserve" font-family="Helvetica-Light" font-size="80.0" fill="#FEFFFF" transform="matrix(1.00, 0.00, -0.00, -1.00, 749.2, 633.0)">s</text><text xml:space="preserve" font-family="Helvetica-Light" font-size="27.9" fill="#FEFFFF" transform="matrix(1.00, 0.00, -0.00, -1.00, 79.0, 526.4)">•</text><text xml:space="preserve" font-family="Helvetica-Light" font-size="37.2" fill="#FEFFFF" transform="matrix(1.00, 0.00, -0.00, -1.00, 113.0, 523.0)">N</text><text xml:space="preserve" font-family="Helvetica-Light" font-size="37.2" fill="#FEFFFF" transform="matrix(1.00, 0.00, -0.00, -1.00, 139.9, 523.0)">o</text><text xml:space="preserve" font-family="Helvetica-Light" font-size="37.2" fill="#FEFFFF" transform="matrix(1.00, 0.00, -0.00, -1.00, 160.6, 523.0)">,</text><text xml:space="preserve" font-family="Helvetica-Light" font-size="37.2" fill="#FEFFFF" transform="matrix(1.00, 0.00, -0.00, -1.00, 170.9, 523.0)"> </text><text xml:space="preserve" font-family="Helvetica-Light" font-size="37.2" fill="#FEFFFF" transform="matrix(1.00, 0.00, -0.00, -1.00, 181.3, 523.0)">n</text><text xml:space="preserve" font-family="Helvetica-Light" font-size="37.2" fill="#FEFFFF" transform="matrix(1.00, 0.00, -0.00, -1.00, 202.0, 523.0)">o</text><text xml:space="preserve" font-family="Helvetica-Light" font-size="37.2" fill="#FEFFFF" transform="matrix(1.00, 0.00, -0.00, -1.00, 222.7, 523.0)">t</text><text xml:space="preserve" font-family="Helvetica-Light" font-size="37.2" fill="#FEFFFF" transform="matrix(1.00, 0.00, -0.00, -1.00, 233.1, 523.0)"> </text><text xml:space="preserve" font-family="Helvetica-Light" font-size="37.2" fill="#FEFFFF" transform="matrix(1.00, 0.00, -0.00, -1.00, 243.4, 523.0)">t</text><text xml:space="preserve" font-family="Helvetica-Light" font-size="37.2" fill="#FEFFFF" transform="matrix(1.00, 0.00, -0.00, -1.00, 253.8, 523.0)">h</text><text xml:space="preserve" font-family="Helvetica-Light" font-size="37.2" fill="#FEFFFF" transform="matrix(1.00, 0.00, -0.00, -1.00, 274.5, 523.0)">e</text><text xml:space="preserve" font-family="Helvetica-Light" font-size="37.2" fill="#FEFFFF" transform="matrix(1.00, 0.00, -0.00, -1.00, 295.2, 523.0)"> </text><text xml:space="preserve" font-family="Helvetica-Light" font-size="37.2" fill="#FEFFFF" transform="matrix(1.00, 0.00, -0.00, -1.00, 305.5, 523.0)">c</text><text xml:space="preserve" font-family="Helvetica-Light" font-size="37.2" fill="#FEFFFF" transform="matrix(1.00, 0.00, -0.00, -1.00, 326.2, 523.0)">l</text><text xml:space="preserve" font-family="Helvetica-Light" font-size="37.2" fill="#FEFFFF" transform="matrix(1.00, 0.00, -0.00, -1.00, 334.5, 523.0)">o</text><text xml:space="preserve" font-family="Helvetica-Light" font-size="37.2" fill="#FEFFFF" transform="matrix(1.00, 0.00, -0.00, -1.00, 355.2, 523.0)">t</text><text xml:space="preserve" font-family="Helvetica-Light" font-size="37.2" fill="#FEFFFF" transform="matrix(1.00, 0.00, -0.00, -1.00, 365.6, 523.0)">h</text><text xml:space="preserve" font-family="Helvetica-Light" font-size="37.2" fill="#FEFFFF" transform="matrix(1.00, 0.00, -0.00, -1.00, 386.3, 523.0)">e</text><text xml:space="preserve" font-family="Helvetica-Light" font-size="37.2" fill="#FEFFFF" transform="matrix(1.00, 0.00, -0.00, -1.00, 407.0, 523.0)">s</text><text xml:space="preserve" font-family="Helvetica-Light" font-size="37.2" fill="#FEFFFF" transform="matrix(1.00, 0.00, -0.00, -1.00, 425.6, 523.0)"> </text><text xml:space="preserve" font-family="Helvetica-Light" font-size="37.2" fill="#FEFFFF" transform="matrix(1.00, 0.00, -0.00, -1.00, 435.9, 523.0)">y</text><text xml:space="preserve" font-family="Helvetica-Light" font-size="37.2" fill="#FEFFFF" transform="matrix(1.00, 0.00, -0.00, -1.00, 454.6, 523.0)">o</text><text xml:space="preserve" font-family="Helvetica-Light" font-size="37.2" fill="#FEFFFF" transform="matrix(1.00, 0.00, -0.00, -1.00, 475.3, 523.0)">u</text><text xml:space="preserve" font-family="Helvetica-Light" font-size="37.2" fill="#FEFFFF" transform="matrix(1.00, 0.00, -0.00, -1.00, 496.0, 523.0)">r</text><text xml:space="preserve" font-family="Helvetica-Light" font-size="37.2" fill="#FEFFFF" transform="matrix(1.00, 0.00, -0.00, -1.00, 508.4, 523.0)"> </text><text xml:space="preserve" font-family="Helvetica-Light" font-size="37.2" fill="#FEFFFF" transform="matrix(1.00, 0.00, -0.00, -1.00, 518.7, 523.0)">p</text><text xml:space="preserve" font-family="Helvetica-Light" font-size="37.2" fill="#FEFFFF" transform="matrix(1.00, 0.00, -0.00, -1.00, 541.5, 523.0)">a</text><text xml:space="preserve" font-family="Helvetica-Light" font-size="37.2" fill="#FEFFFF" transform="matrix(1.00, 0.00, -0.00, -1.00, 562.2, 523.0)">r</text><text xml:space="preserve" font-family="Helvetica-Light" font-size="37.2" fill="#FEFFFF" transform="matrix(1.00, 0.00, -0.00, -1.00, 575.3, 523.0)">t</text><text xml:space="preserve" font-family="Helvetica-Light" font-size="37.2" fill="#FEFFFF" transform="matrix(1.00, 0.00, -0.00, -1.00, 585.6, 523.0)">n</text><text xml:space="preserve" font-family="Helvetica-Light" font-size="37.2" fill="#FEFFFF" transform="matrix(1.00, 0.00, -0.00, -1.00, 606.3, 523.0)">e</text><text xml:space="preserve" font-family="Helvetica-Light" font-size="37.2" fill="#FEFFFF" transform="matrix(1.00, 0.00, -0.00, -1.00, 627.0, 523.0)">r</text><text xml:space="preserve" font-family="Helvetica-Light" font-size="37.2" fill="#FEFFFF" transform="matrix(1.00, 0.00, -0.00, -1.00, 639.4, 523.0)"> </text><text xml:space="preserve" font-family="Helvetica-Light" font-size="37.2" fill="#FEFFFF" transform="matrix(1.00, 0.00, -0.00, -1.00, 649.8, 523.0)">s</text><text xml:space="preserve" font-family="Helvetica-Light" font-size="37.2" fill="#FEFFFF" transform="matrix(1.00, 0.00, -0.00, -1.00, 668.4, 523.0)">e</text><text xml:space="preserve" font-family="Helvetica-Light" font-size="37.2" fill="#FEFFFF" transform="matrix(1.00, 0.00, -0.00, -1.00, 689.1, 523.0)">c</text><text xml:space="preserve" font-family="Helvetica-Light" font-size="37.2" fill="#FEFFFF" transform="matrix(1.00, 0.00, -0.00, -1.00, 709.8, 523.0)">r</text><text xml:space="preserve" font-family="Helvetica-Light" font-size="37.2" fill="#FEFFFF" transform="matrix(1.00, 0.00, -0.00, -1.00, 721.5, 523.0)">e</text><text xml:space="preserve" font-family="Helvetica-Light" font-size="37.2" fill="#FEFFFF" transform="matrix(1.00, 0.00, -0.00, -1.00, 742.2, 523.0)">t</text><text xml:space="preserve" font-family="Helvetica-Light" font-size="37.2" fill="#FEFFFF" transform="matrix(1.00, 0.00, -0.00, -1.00, 752.6, 523.0)">l</text><text xml:space="preserve" font-family="Helvetica-Light" font-size="37.2" fill="#FEFFFF" transform="matrix(1.00, 0.00, -0.00, -1.00, 760.9, 523.0)">y</text><text xml:space="preserve" font-family="Helvetica-Light" font-size="37.2" fill="#FEFFFF" transform="matrix(1.00, 0.00, -0.00, -1.00, 779.5, 523.0)"> </text><text xml:space="preserve" font-family="Helvetica-Light" font-size="37.2" fill="#FEFFFF" transform="matrix(1.00, 0.00, -0.00, -1.00, 789.8, 523.0)">b</text><text xml:space="preserve" font-family="Helvetica-Light" font-size="37.2" fill="#FEFFFF" transform="matrix(1.00, 0.00, -0.00, -1.00, 812.6, 523.0)">u</text><text xml:space="preserve" font-family="Helvetica-Light" font-size="37.2" fill="#FEFFFF" transform="matrix(1.00, 0.00, -0.00, -1.00, 833.3, 523.0)">y</text><text xml:space="preserve" font-family="Helvetica-Light" font-size="37.2" fill="#FEFFFF" transform="matrix(1.00, 0.00, -0.00, -1.00, 851.9, 523.0)">s</text><text xml:space="preserve" font-family="Helvetica-Light" font-size="37.2" fill="#FEFFFF" transform="matrix(1.00, 0.00, -0.00, -1.00, 870.5, 523.0)"> </text><text xml:space="preserve" font-family="Helvetica-Light" font-size="37.2" fill="#FEFFFF" transform="matrix(1.00, 0.00, -0.00, -1.00, 113.0, 477.0)">a</text><text xml:space="preserve" font-family="Helvetica-Light" font-size="37.2" fill="#FEFFFF" transform="matrix(1.00, 0.00, -0.00, -1.00, 133.7, 477.0)">n</text><text xml:space="preserve" font-family="Helvetica-Light" font-size="37.2" fill="#FEFFFF" transform="matrix(1.00, 0.00, -0.00, -1.00, 154.4, 477.0)">d</text><text xml:space="preserve" font-family="Helvetica-Light" font-size="37.2" fill="#FEFFFF" transform="matrix(1.00, 0.00, -0.00, -1.00, 177.2, 477.0)"> </text><text xml:space="preserve" font-family="Helvetica-Light" font-size="37.2" fill="#FEFFFF" transform="matrix(1.00, 0.00, -0.00, -1.00, 187.5, 477.0)">h</text><text xml:space="preserve" font-family="Helvetica-Light" font-size="37.2" fill="#FEFFFF" transform="matrix(1.00, 0.00, -0.00, -1.00, 208.2, 477.0)">i</text><text xml:space="preserve" font-family="Helvetica-Light" font-size="37.2" fill="#FEFFFF" transform="matrix(1.00, 0.00, -0.00, -1.00, 216.5, 477.0)">d</text><text xml:space="preserve" font-family="Helvetica-Light" font-size="37.2" fill="#FEFFFF" transform="matrix(1.00, 0.00, -0.00, -1.00, 239.2, 477.0)">e</text><text xml:space="preserve" font-family="Helvetica-Light" font-size="37.2" fill="#FEFFFF" transform="matrix(1.00, 0.00, -0.00, -1.00, 259.9, 477.0)">s</text><text xml:space="preserve" font-family="Helvetica-Light" font-size="27.9" fill="#FEFFFF" transform="matrix(1.00, 0.00, -0.00, -1.00, 79.0, 393.3)">•</text><text xml:space="preserve" font-family="Helvetica-Light" font-size="37.2" fill="#FEFFFF" transform="matrix(1.00, 0.00, -0.00, -1.00, 113.0, 389.0)">s</text><text xml:space="preserve" font-family="Helvetica-Light" font-size="37.2" fill="#FEFFFF" transform="matrix(1.00, 0.00, -0.00, -1.00, 131.6, 389.0)">e</text><text xml:space="preserve" font-family="Helvetica-Light" font-size="37.2" fill="#FEFFFF" transform="matrix(1.00, 0.00, -0.00, -1.00, 152.3, 389.0)">t</text><text xml:space="preserve" font-family="Helvetica-Light" font-size="37.2" fill="#FEFFFF" transform="matrix(1.00, 0.00, -0.00, -1.00, 162.7, 389.0)">T</text><text xml:space="preserve" font-family="Helvetica-Light" font-size="37.2" fill="#FEFFFF" transform="matrix(1.00, 0.00, -0.00, -1.00, 183.4, 389.0)">i</text><text xml:space="preserve" font-family="Helvetica-Light" font-size="37.2" fill="#FEFFFF" transform="matrix(1.00, 0.00, -0.00, -1.00, 191.7, 389.0)">m</text><text xml:space="preserve" font-family="Helvetica-Light" font-size="37.2" fill="#FEFFFF" transform="matrix(1.00, 0.00, -0.00, -1.00, 222.7, 389.0)">e</text><text xml:space="preserve" font-family="Helvetica-Light" font-size="37.2" fill="#FEFFFF" transform="matrix(1.00, 0.00, -0.00, -1.00, 243.4, 389.0)">o</text><text xml:space="preserve" font-family="Helvetica-Light" font-size="37.2" fill="#FEFFFF" transform="matrix(1.00, 0.00, -0.00, -1.00, 264.1, 389.0)">u</text><text xml:space="preserve" font-family="Helvetica-Light" font-size="37.2" fill="#FEFFFF" transform="matrix(1.00, 0.00, -0.00, -1.00, 284.8, 389.0)">t</text><text xml:space="preserve" font-family="Helvetica-Light" font-size="37.2" fill="#FEFFFF" transform="matrix(1.00, 0.00, -0.00, -1.00, 295.1, 389.0)">,</text><text xml:space="preserve" font-family="Helvetica-Light" font-size="37.2" fill="#FEFFFF" transform="matrix(1.00, 0.00, -0.00, -1.00, 305.5, 389.0)"> </text><text xml:space="preserve" font-family="Helvetica-Light" font-size="37.2" fill="#FEFFFF" transform="matrix(1.00, 0.00, -0.00, -1.00, 315.8, 389.0)">X</text><text xml:space="preserve" font-family="Helvetica-Light" font-size="37.2" fill="#FEFFFF" transform="matrix(1.00, 0.00, -0.00, -1.00, 338.6, 389.0)">H</text><text xml:space="preserve" font-family="Helvetica-Light" font-size="37.2" fill="#FEFFFF" transform="matrix(1.00, 0.00, -0.00, -1.00, 365.5, 389.0)">R</text><text xml:space="preserve" font-family="Helvetica-Light" font-size="37.2" fill="#FEFFFF" transform="matrix(1.00, 0.00, -0.00, -1.00, 390.3, 389.0)"> </text><text xml:space="preserve" font-family="Helvetica-Light" font-size="37.2" fill="#FEFFFF" transform="matrix(1.00, 0.00, -0.00, -1.00, 400.7, 389.0)">e</text><text xml:space="preserve" font-family="Helvetica-Light" font-size="37.2" fill="#FEFFFF" transform="matrix(1.00, 0.00, -0.00, -1.00, 421.4, 389.0)">t</text><text xml:space="preserve" font-family="Helvetica-Light" font-size="37.2" fill="#FEFFFF" transform="matrix(1.00, 0.00, -0.00, -1.00, 431.7, 389.0)">c</text><text xml:space="preserve" font-family="Helvetica-Light" font-size="37.2" fill="#FEFFFF" transform="matrix(1.00, 0.00, -0.00, -1.00, 452.4, 389.0)"> </text><text xml:space="preserve" font-family="Helvetica-Light" font-size="37.2" fill="#FEFFFF" transform="matrix(1.00, 0.00, -0.00, -1.00, 462.8, 389.0)">a</text><text xml:space="preserve" font-family="Helvetica-Light" font-size="37.2" fill="#FEFFFF" transform="matrix(1.00, 0.00, -0.00, -1.00, 483.5, 389.0)">r</text><text xml:space="preserve" font-family="Helvetica-Light" font-size="37.2" fill="#FEFFFF" transform="matrix(1.00, 0.00, -0.00, -1.00, 495.2, 389.0)">e</text><text xml:space="preserve" font-family="Helvetica-Light" font-size="37.2" fill="#FEFFFF" transform="matrix(1.00, 0.00, -0.00, -1.00, 515.9, 389.0)"> </text><text xml:space="preserve" font-family="Helvetica-Light" font-size="37.2" fill="#FEFFFF" transform="matrix(1.00, 0.00, -0.00, -1.00, 526.3, 389.0)">n</text><text xml:space="preserve" font-family="Helvetica-Light" font-size="37.2" fill="#FEFFFF" transform="matrix(1.00, 0.00, -0.00, -1.00, 547.0, 389.0)">o</text><text xml:space="preserve" font-family="Helvetica-Light" font-size="37.2" fill="#FEFFFF" transform="matrix(1.00, 0.00, -0.00, -1.00, 567.7, 389.0)">t</text><text xml:space="preserve" font-family="Helvetica-Light" font-size="37.2" fill="#FEFFFF" transform="matrix(1.00, 0.00, -0.00, -1.00, 578.1, 389.0)"> </text><text xml:space="preserve" font-family="Helvetica-Light" font-size="37.2" fill="#FEFFFF" transform="matrix(1.00, 0.00, -0.00, -1.00, 588.4, 389.0)">p</text><text xml:space="preserve" font-family="Helvetica-Light" font-size="37.2" fill="#FEFFFF" transform="matrix(1.00, 0.00, -0.00, -1.00, 611.2, 389.0)">a</text><text xml:space="preserve" font-family="Helvetica-Light" font-size="37.2" fill="#FEFFFF" transform="matrix(1.00, 0.00, -0.00, -1.00, 631.9, 389.0)">r</text><text xml:space="preserve" font-family="Helvetica-Light" font-size="37.2" fill="#FEFFFF" transform="matrix(1.00, 0.00, -0.00, -1.00, 644.9, 389.0)">t</text><text xml:space="preserve" font-family="Helvetica-Light" font-size="37.2" fill="#FEFFFF" transform="matrix(1.00, 0.00, -0.00, -1.00, 655.3, 389.0)"> </text><text xml:space="preserve" font-family="Helvetica-Light" font-size="37.2" fill="#FEFFFF" transform="matrix(1.00, 0.00, -0.00, -1.00, 665.6, 389.0)">o</text><text xml:space="preserve" font-family="Helvetica-Light" font-size="37.2" fill="#FEFFFF" transform="matrix(1.00, 0.00, -0.00, -1.00, 686.3, 389.0)">f</text><text xml:space="preserve" font-family="Helvetica-Light" font-size="37.2" fill="#FEFFFF" transform="matrix(1.00, 0.00, -0.00, -1.00, 696.7, 389.0)"> </text><text xml:space="preserve" font-family="Helvetica-Light" font-size="37.2" fill="#FEFFFF" transform="matrix(1.00, 0.00, -0.00, -1.00, 707.1, 389.0)">t</text><text xml:space="preserve" font-family="Helvetica-Light" font-size="37.2" fill="#FEFFFF" transform="matrix(1.00, 0.00, -0.00, -1.00, 717.4, 389.0)">h</text><text xml:space="preserve" font-family="Helvetica-Light" font-size="37.2" fill="#FEFFFF" transform="matrix(1.00, 0.00, -0.00, -1.00, 738.1, 389.0)">e</text><text xml:space="preserve" font-family="Helvetica-Light" font-size="37.2" fill="#FEFFFF" transform="matrix(1.00, 0.00, -0.00, -1.00, 758.8, 389.0)"> </text><text xml:space="preserve" font-family="Helvetica-Light" font-size="37.2" fill="#FEFFFF" transform="matrix(1.00, 0.00, -0.00, -1.00, 769.2, 389.0)">V</text><text xml:space="preserve" font-family="Helvetica-Light" font-size="37.2" fill="#FEFFFF" transform="matrix(1.00, 0.00, -0.00, -1.00, 791.9, 389.0)">8</text><text xml:space="preserve" font-family="Helvetica-Light" font-size="37.2" fill="#FEFFFF" transform="matrix(1.00, 0.00, -0.00, -1.00, 812.6, 389.0)"> </text><text xml:space="preserve" font-family="Helvetica-Light" font-size="37.2" fill="#FEFFFF" transform="matrix(1.00, 0.00, -0.00, -1.00, 823.0, 389.0)">e</text><text xml:space="preserve" font-family="Helvetica-Light" font-size="37.2" fill="#FEFFFF" transform="matrix(1.00, 0.00, -0.00, -1.00, 843.7, 389.0)">n</text><text xml:space="preserve" font-family="Helvetica-Light" font-size="37.2" fill="#FEFFFF" transform="matrix(1.00, 0.00, -0.00, -1.00, 864.4, 389.0)">g</text><text xml:space="preserve" font-family="Helvetica-Light" font-size="37.2" fill="#FEFFFF" transform="matrix(1.00, 0.00, -0.00, -1.00, 887.1, 389.0)">i</text><text xml:space="preserve" font-family="Helvetica-Light" font-size="37.2" fill="#FEFFFF" transform="matrix(1.00, 0.00, -0.00, -1.00, 895.4, 389.0)">n</text><text xml:space="preserve" font-family="Helvetica-Light" font-size="37.2" fill="#FEFFFF" transform="matrix(1.00, 0.00, -0.00, -1.00, 916.1, 389.0)">e</text><text xml:space="preserve" font-family="Helvetica-Light" font-size="27.9" fill="#FEFFFF" transform="matrix(1.00, 0.00, -0.00, -1.00, 114.0, 306.1)">•</text><text xml:space="preserve" font-family="Helvetica-Light" font-size="37.2" fill="#FEFFFF" transform="matrix(1.00, 0.00, -0.00, -1.00, 148.0, 302.0)">T</text><text xml:space="preserve" font-family="Helvetica-Light" font-size="37.2" fill="#FEFFFF" transform="matrix(1.00, 0.00, -0.00, -1.00, 168.7, 302.0)">h</text><text xml:space="preserve" font-family="Helvetica-Light" font-size="37.2" fill="#FEFFFF" transform="matrix(1.00, 0.00, -0.00, -1.00, 189.4, 302.0)">e</text><text xml:space="preserve" font-family="Helvetica-Light" font-size="37.2" fill="#FEFFFF" transform="matrix(1.00, 0.00, -0.00, -1.00, 210.1, 302.0)">y</text><text xml:space="preserve" font-family="Helvetica-Light" font-size="37.2" fill="#FEFFFF" transform="matrix(1.00, 0.00, -0.00, -1.00, 228.7, 302.0)"> </text><text xml:space="preserve" font-family="Helvetica-Light" font-size="37.2" fill="#FEFFFF" transform="matrix(1.00, 0.00, -0.00, -1.00, 239.1, 302.0)">a</text><text xml:space="preserve" font-family="Helvetica-Light" font-size="37.2" fill="#FEFFFF" transform="matrix(1.00, 0.00, -0.00, -1.00, 259.8, 302.0)">r</text><text xml:space="preserve" font-family="Helvetica-Light" font-size="37.2" fill="#FEFFFF" transform="matrix(1.00, 0.00, -0.00, -1.00, 271.5, 302.0)">e</text><text xml:space="preserve" font-family="Helvetica-Light" font-size="37.2" fill="#FEFFFF" transform="matrix(1.00, 0.00, -0.00, -1.00, 292.2, 302.0)"> </text><text xml:space="preserve" font-family="Helvetica-Light" font-size="37.2" fill="#FEFFFF" transform="matrix(1.00, 0.00, -0.00, -1.00, 302.6, 302.0)">p</text><text xml:space="preserve" font-family="Helvetica-Light" font-size="37.2" fill="#FEFFFF" transform="matrix(1.00, 0.00, -0.00, -1.00, 325.3, 302.0)">a</text><text xml:space="preserve" font-family="Helvetica-Light" font-size="37.2" fill="#FEFFFF" transform="matrix(1.00, 0.00, -0.00, -1.00, 346.0, 302.0)">r</text><text xml:space="preserve" font-family="Helvetica-Light" font-size="37.2" fill="#FEFFFF" transform="matrix(1.00, 0.00, -0.00, -1.00, 359.1, 302.0)">t</text><text xml:space="preserve" font-family="Helvetica-Light" font-size="37.2" fill="#FEFFFF" transform="matrix(1.00, 0.00, -0.00, -1.00, 369.5, 302.0)"> </text><text xml:space="preserve" font-family="Helvetica-Light" font-size="37.2" fill="#FEFFFF" transform="matrix(1.00, 0.00, -0.00, -1.00, 379.8, 302.0)">o</text><text xml:space="preserve" font-family="Helvetica-Light" font-size="37.2" fill="#FEFFFF" transform="matrix(1.00, 0.00, -0.00, -1.00, 400.5, 302.0)">f</text><text xml:space="preserve" font-family="Helvetica-Light" font-size="37.2" fill="#FEFFFF" transform="matrix(1.00, 0.00, -0.00, -1.00, 410.9, 302.0)"> </text><text xml:space="preserve" font-family="Helvetica-Light" font-size="37.2" fill="#FEFFFF" transform="matrix(1.00, 0.00, -0.00, -1.00, 421.2, 302.0)">t</text><text xml:space="preserve" font-family="Helvetica-Light" font-size="37.2" fill="#FEFFFF" transform="matrix(1.00, 0.00, -0.00, -1.00, 431.6, 302.0)">h</text><text xml:space="preserve" font-family="Helvetica-Light" font-size="37.2" fill="#FEFFFF" transform="matrix(1.00, 0.00, -0.00, -1.00, 452.3, 302.0)">e</text><text xml:space="preserve" font-family="Helvetica-Light" font-size="37.2" fill="#FEFFFF" transform="matrix(1.00, 0.00, -0.00, -1.00, 473.0, 302.0)"> </text><text xml:space="preserve" font-family="Helvetica-Light" font-size="37.2" fill="#FEFFFF" transform="matrix(1.00, 0.00, -0.00, -1.00, 483.3, 302.0)">b</text><text xml:space="preserve" font-family="Helvetica-Light" font-size="37.2" fill="#FEFFFF" transform="matrix(1.00, 0.00, -0.00, -1.00, 506.1, 302.0)">r</text><text xml:space="preserve" font-family="Helvetica-Light" font-size="37.2" fill="#FEFFFF" transform="matrix(1.00, 0.00, -0.00, -1.00, 517.8, 302.0)">o</text><text xml:space="preserve" font-family="Helvetica-Light" font-size="37.2" fill="#FEFFFF" transform="matrix(1.00, 0.00, -0.00, -1.00, 538.5, 302.0)">w</text><text xml:space="preserve" font-family="Helvetica-Light" font-size="37.2" fill="#FEFFFF" transform="matrix(1.00, 0.00, -0.00, -1.00, 565.4, 302.0)">s</text><text xml:space="preserve" font-family="Helvetica-Light" font-size="37.2" fill="#FEFFFF" transform="matrix(1.00, 0.00, -0.00, -1.00, 584.0, 302.0)">e</text><text xml:space="preserve" font-family="Helvetica-Light" font-size="37.2" fill="#FEFFFF" transform="matrix(1.00, 0.00, -0.00, -1.00, 604.7, 302.0)">r</text><text xml:space="preserve" font-family="Helvetica-Light" font-size="37.2" fill="#FEFFFF" transform="matrix(1.00, 0.00, -0.00, -1.00, 617.1, 302.0)"> </text><text xml:space="preserve" font-family="Helvetica-Light" font-size="37.2" fill="#FEFFFF" transform="matrix(1.00, 0.00, -0.00, -1.00, 627.5, 302.0)">A</text><text xml:space="preserve" font-family="Helvetica-Light" font-size="37.2" fill="#FEFFFF" transform="matrix(1.00, 0.00, -0.00, -1.00, 652.3, 302.0)">P</text><text xml:space="preserve" font-family="Helvetica-Light" font-size="37.2" fill="#FEFFFF" transform="matrix(1.00, 0.00, -0.00, -1.00, 675.1, 302.0)">I</text><text xml:space="preserve" font-family="Helvetica-Light" font-size="37.2" fill="#FEFFFF" transform="matrix(1.00, 0.00, -0.00, -1.00, 685.4, 302.0)">s</text><text xml:space="preserve" font-family="Helvetica-Light" font-size="37.2" fill="#FEFFFF" transform="matrix(1.00, 0.00, -0.00, -1.00, 704.1, 302.0)"> </text><text xml:space="preserve" font-family="Helvetica-Light" font-size="37.2" fill="#FEFFFF" transform="matrix(1.00, 0.00, -0.00, -1.00, 714.4, 302.0)">(</text><text xml:space="preserve" font-family="Helvetica-Light" font-size="37.2" fill="#FEFFFF" transform="matrix(1.00, 0.00, -0.00, -1.00, 726.8, 302.0)">C</text><text xml:space="preserve" font-family="Helvetica-Light" font-size="37.2" fill="#FEFFFF" transform="matrix(1.00, 0.00, -0.00, -1.00, 753.7, 302.0)">h</text><text xml:space="preserve" font-family="Helvetica-Light" font-size="37.2" fill="#FEFFFF" transform="matrix(1.00, 0.00, -0.00, -1.00, 774.4, 302.0)">r</text><text xml:space="preserve" font-family="Helvetica-Light" font-size="37.2" fill="#FEFFFF" transform="matrix(1.00, 0.00, -0.00, -1.00, 786.1, 302.0)">o</text><text xml:space="preserve" font-family="Helvetica-Light" font-size="37.2" fill="#FEFFFF" transform="matrix(1.00, 0.00, -0.00, -1.00, 806.9, 302.0)">m</text><text xml:space="preserve" font-family="Helvetica-Light" font-size="37.2" fill="#FEFFFF" transform="matrix(1.00, 0.00, -0.00, -1.00, 837.9, 302.0)">e</text><text xml:space="preserve" font-family="Helvetica-Light" font-size="37.2" fill="#FEFFFF" transform="matrix(1.00, 0.00, -0.00, -1.00, 858.6, 302.0)">)</text><text xml:space="preserve" font-family="Helvetica-Light" font-size="37.2" fill="#FEFFFF" transform="matrix(1.00, 0.00, -0.00, -1.00, 871.0, 302.0)"> </text><text xml:space="preserve" font-family="Helvetica-Light" font-size="37.2" fill="#FEFFFF" transform="matrix(1.00, 0.00, -0.00, -1.00, 881.3, 302.0)">o</text><text xml:space="preserve" font-family="Helvetica-Light" font-size="37.2" fill="#FEFFFF" transform="matrix(1.00, 0.00, -0.00, -1.00, 902.0, 302.0)">r</text><text xml:space="preserve" font-family="Helvetica-Light" font-size="37.2" fill="#FEFFFF" transform="matrix(1.00, 0.00, -0.00, -1.00, 914.4, 302.0)"> </text><text xml:space="preserve" font-family="Helvetica-Light" font-size="37.2" fill="#FEFFFF" transform="matrix(1.00, 0.00, -0.00, -1.00, 148.0, 256.0)">c</text><text xml:space="preserve" font-family="Helvetica-Light" font-size="37.2" fill="#FEFFFF" transform="matrix(1.00, 0.00, -0.00, -1.00, 168.7, 256.0)">o</text><text xml:space="preserve" font-family="Helvetica-Light" font-size="37.2" fill="#FEFFFF" transform="matrix(1.00, 0.00, -0.00, -1.00, 189.4, 256.0)">r</text><text xml:space="preserve" font-family="Helvetica-Light" font-size="37.2" fill="#FEFFFF" transform="matrix(1.00, 0.00, -0.00, -1.00, 201.1, 256.0)">e</text><text xml:space="preserve" font-family="Helvetica-Light" font-size="37.2" fill="#FEFFFF" transform="matrix(1.00, 0.00, -0.00, -1.00, 221.8, 256.0)">-</text><text xml:space="preserve" font-family="Helvetica-Light" font-size="37.2" fill="#FEFFFF" transform="matrix(1.00, 0.00, -0.00, -1.00, 234.2, 256.0)">l</text><text xml:space="preserve" font-family="Helvetica-Light" font-size="37.2" fill="#FEFFFF" transform="matrix(1.00, 0.00, -0.00, -1.00, 242.5, 256.0)">i</text><text xml:space="preserve" font-family="Helvetica-Light" font-size="37.2" fill="#FEFFFF" transform="matrix(1.00, 0.00, -0.00, -1.00, 250.8, 256.0)">b</text><text xml:space="preserve" font-family="Helvetica-Light" font-size="37.2" fill="#FEFFFF" transform="matrix(1.00, 0.00, -0.00, -1.00, 273.5, 256.0)"> </text><text xml:space="preserve" font-family="Helvetica-Light" font-size="37.2" fill="#FEFFFF" transform="matrix(1.00, 0.00, -0.00, -1.00, 283.9, 256.0)">(</text><text xml:space="preserve" font-family="Helvetica-Light" font-size="37.2" fill="#FEFFFF" transform="matrix(1.00, 0.00, -0.00, -1.00, 296.3, 256.0)">n</text><text xml:space="preserve" font-family="Helvetica-Light" font-size="37.2" fill="#FEFFFF" transform="matrix(1.00, 0.00, -0.00, -1.00, 317.0, 256.0)">o</text><text xml:space="preserve" font-family="Helvetica-Light" font-size="37.2" fill="#FEFFFF" transform="matrix(1.00, 0.00, -0.00, -1.00, 337.7, 256.0)">d</text><text xml:space="preserve" font-family="Helvetica-Light" font-size="37.2" fill="#FEFFFF" transform="matrix(1.00, 0.00, -0.00, -1.00, 360.5, 256.0)">e</text><text xml:space="preserve" font-family="Helvetica-Light" font-size="37.2" fill="#FEFFFF" transform="matrix(1.00, 0.00, -0.00, -1.00, 381.2, 256.0)">)</text><text xml:space="preserve" font-family="Helvetica-Light" font-size="27.9" fill="#FEFFFF" transform="matrix(1.00, 0.00, -0.00, -1.00, 114.0, 172.9)">•</text><text xml:space="preserve" font-family="Helvetica-Light" font-size="37.2" fill="#FEFFFF" transform="matrix(1.00, 0.00, -0.00, -1.00, 148.0, 169.0)">T</text><text xml:space="preserve" font-family="Helvetica-Light" font-size="37.2" fill="#FEFFFF" transform="matrix(1.00, 0.00, -0.00, -1.00, 168.7, 169.0)">h</text><text xml:space="preserve" font-family="Helvetica-Light" font-size="37.2" fill="#FEFFFF" transform="matrix(1.00, 0.00, -0.00, -1.00, 189.4, 169.0)">e</text><text xml:space="preserve" font-family="Helvetica-Light" font-size="37.2" fill="#FEFFFF" transform="matrix(1.00, 0.00, -0.00, -1.00, 210.1, 169.0)"> </text><text xml:space="preserve" font-family="Helvetica-Light" font-size="37.2" fill="#FEFFFF" transform="matrix(1.00, 0.00, -0.00, -1.00, 220.5, 169.0)">c</text><text xml:space="preserve" font-family="Helvetica-Light" font-size="37.2" fill="#FEFFFF" transform="matrix(1.00, 0.00, -0.00, -1.00, 241.2, 169.0)">a</text><text xml:space="preserve" font-family="Helvetica-Light" font-size="37.2" fill="#FEFFFF" transform="matrix(1.00, 0.00, -0.00, -1.00, 261.9, 169.0)">l</text><text xml:space="preserve" font-family="Helvetica-Light" font-size="37.2" fill="#FEFFFF" transform="matrix(1.00, 0.00, -0.00, -1.00, 270.1, 169.0)">l</text><text xml:space="preserve" font-family="Helvetica-Light" font-size="37.2" fill="#FEFFFF" transform="matrix(1.00, 0.00, -0.00, -1.00, 278.4, 169.0)">s</text><text xml:space="preserve" font-family="Helvetica-Light" font-size="37.2" fill="#FEFFFF" transform="matrix(1.00, 0.00, -0.00, -1.00, 297.0, 169.0)"> </text><text xml:space="preserve" font-family="Helvetica-Light" font-size="37.2" fill="#FEFFFF" transform="matrix(1.00, 0.00, -0.00, -1.00, 307.4, 169.0)">e</text><text xml:space="preserve" font-family="Helvetica-Light" font-size="37.2" fill="#FEFFFF" transform="matrix(1.00, 0.00, -0.00, -1.00, 328.1, 169.0)">x</text><text xml:space="preserve" font-family="Helvetica-Light" font-size="37.2" fill="#FEFFFF" transform="matrix(1.00, 0.00, -0.00, -1.00, 346.7, 169.0)">e</text><text xml:space="preserve" font-family="Helvetica-Light" font-size="37.2" fill="#FEFFFF" transform="matrix(1.00, 0.00, -0.00, -1.00, 367.4, 169.0)">c</text><text xml:space="preserve" font-family="Helvetica-Light" font-size="37.2" fill="#FEFFFF" transform="matrix(1.00, 0.00, -0.00, -1.00, 388.1, 169.0)">u</text><text xml:space="preserve" font-family="Helvetica-Light" font-size="37.2" fill="#FEFFFF" transform="matrix(1.00, 0.00, -0.00, -1.00, 408.8, 169.0)">t</text><text xml:space="preserve" font-family="Helvetica-Light" font-size="37.2" fill="#FEFFFF" transform="matrix(1.00, 0.00, -0.00, -1.00, 419.2, 169.0)">e</text><text xml:space="preserve" font-family="Helvetica-Light" font-size="37.2" fill="#FEFFFF" transform="matrix(1.00, 0.00, -0.00, -1.00, 439.9, 169.0)"> </text><text xml:space="preserve" font-family="Helvetica-Light" font-size="37.2" fill="#FEFFFF" transform="matrix(1.00, 0.00, -0.00, -1.00, 450.2, 169.0)">i</text><text xml:space="preserve" font-family="Helvetica-Light" font-size="37.2" fill="#FEFFFF" transform="matrix(1.00, 0.00, -0.00, -1.00, 458.5, 169.0)">n</text><text xml:space="preserve" font-family="Helvetica-Light" font-size="37.2" fill="#FEFFFF" transform="matrix(1.00, 0.00, -0.00, -1.00, 479.2, 169.0)"> </text><text xml:space="preserve" font-family="Helvetica-Light" font-size="37.2" fill="#FEFFFF" transform="matrix(1.00, 0.00, -0.00, -1.00, 489.6, 169.0)">s</text><text xml:space="preserve" font-family="Helvetica-Light" font-size="37.2" fill="#FEFFFF" transform="matrix(1.00, 0.00, -0.00, -1.00, 508.2, 169.0)">e</text><text xml:space="preserve" font-family="Helvetica-Light" font-size="37.2" fill="#FEFFFF" transform="matrix(1.00, 0.00, -0.00, -1.00, 528.9, 169.0)">p</text><text xml:space="preserve" font-family="Helvetica-Light" font-size="37.2" fill="#FEFFFF" transform="matrix(1.00, 0.00, -0.00, -1.00, 551.6, 169.0)">a</text><text xml:space="preserve" font-family="Helvetica-Light" font-size="37.2" fill="#FEFFFF" transform="matrix(1.00, 0.00, -0.00, -1.00, 572.3, 169.0)">r</text><text xml:space="preserve" font-family="Helvetica-Light" font-size="37.2" fill="#FEFFFF" transform="matrix(1.00, 0.00, -0.00, -1.00, 584.8, 169.0)">a</text><text xml:space="preserve" font-family="Helvetica-Light" font-size="37.2" fill="#FEFFFF" transform="matrix(1.00, 0.00, -0.00, -1.00, 605.5, 169.0)">t</text><text xml:space="preserve" font-family="Helvetica-Light" font-size="37.2" fill="#FEFFFF" transform="matrix(1.00, 0.00, -0.00, -1.00, 615.8, 169.0)">e</text><text xml:space="preserve" font-family="Helvetica-Light" font-size="37.2" fill="#FEFFFF" transform="matrix(1.00, 0.00, -0.00, -1.00, 636.5, 169.0)"> </text><text xml:space="preserve" font-family="Helvetica-Light" font-size="37.2" fill="#FEFFFF" transform="matrix(1.00, 0.00, -0.00, -1.00, 646.9, 169.0)">t</text><text xml:space="preserve" font-family="Helvetica-Light" font-size="37.2" fill="#FEFFFF" transform="matrix(1.00, 0.00, -0.00, -1.00, 657.2, 169.0)">h</text><text xml:space="preserve" font-family="Helvetica-Light" font-size="37.2" fill="#FEFFFF" transform="matrix(1.00, 0.00, -0.00, -1.00, 677.9, 169.0)">r</text><text xml:space="preserve" font-family="Helvetica-Light" font-size="37.2" fill="#FEFFFF" transform="matrix(1.00, 0.00, -0.00, -1.00, 689.7, 169.0)">e</text><text xml:space="preserve" font-family="Helvetica-Light" font-size="37.2" fill="#FEFFFF" transform="matrix(1.00, 0.00, -0.00, -1.00, 710.4, 169.0)">a</text><text xml:space="preserve" font-family="Helvetica-Light" font-size="37.2" fill="#FEFFFF" transform="matrix(1.00, 0.00, -0.00, -1.00, 731.1, 169.0)">d</text><text xml:space="preserve" font-family="Helvetica-Light" font-size="37.2" fill="#FEFFFF" transform="matrix(1.00, 0.00, -0.00, -1.00, 753.8, 169.0)">s</text><text xml:space="preserve" font-family="Helvetica-Light" font-size="27.9" fill="#FEFFFF" transform="matrix(1.00, 0.00, -0.00, -1.00, 114.0, 85.8)">•</text><text xml:space="preserve" font-family="Helvetica-Light" font-size="37.2" fill="#FEFFFF" transform="matrix(1.00, 0.00, -0.00, -1.00, 148.0, 82.0)">T</text><text xml:space="preserve" font-family="Helvetica-Light" font-size="37.2" fill="#FEFFFF" transform="matrix(1.00, 0.00, -0.00, -1.00, 168.7, 82.0)">h</text><text xml:space="preserve" font-family="Helvetica-Light" font-size="37.2" fill="#FEFFFF" transform="matrix(1.00, 0.00, -0.00, -1.00, 189.4, 82.0)">e</text><text xml:space="preserve" font-family="Helvetica-Light" font-size="37.2" fill="#FEFFFF" transform="matrix(1.00, 0.00, -0.00, -1.00, 210.1, 82.0)"> </text><text xml:space="preserve" font-family="Helvetica-Light" font-size="37.2" fill="#FEFFFF" transform="matrix(1.00, 0.00, -0.00, -1.00, 220.5, 82.0)">V</text><text xml:space="preserve" font-family="Helvetica-Light" font-size="37.2" fill="#FEFFFF" transform="matrix(1.00, 0.00, -0.00, -1.00, 243.2, 82.0)">8</text><text xml:space="preserve" font-family="Helvetica-Light" font-size="37.2" fill="#FEFFFF" transform="matrix(1.00, 0.00, -0.00, -1.00, 263.9, 82.0)"> </text><text xml:space="preserve" font-family="Helvetica-Light" font-size="37.2" fill="#FEFFFF" transform="matrix(1.00, 0.00, -0.00, -1.00, 274.3, 82.0)">e</text><text xml:space="preserve" font-family="Helvetica-Light" font-size="37.2" fill="#FEFFFF" transform="matrix(1.00, 0.00, -0.00, -1.00, 295.0, 82.0)">n</text><text xml:space="preserve" font-family="Helvetica-Light" font-size="37.2" fill="#FEFFFF" transform="matrix(1.00, 0.00, -0.00, -1.00, 315.7, 82.0)">g</text><text xml:space="preserve" font-family="Helvetica-Light" font-size="37.2" fill="#FEFFFF" transform="matrix(1.00, 0.00, -0.00, -1.00, 338.4, 82.0)">i</text><text xml:space="preserve" font-family="Helvetica-Light" font-size="37.2" fill="#FEFFFF" transform="matrix(1.00, 0.00, -0.00, -1.00, 346.7, 82.0)">n</text><text xml:space="preserve" font-family="Helvetica-Light" font-size="37.2" fill="#FEFFFF" transform="matrix(1.00, 0.00, -0.00, -1.00, 367.4, 82.0)">e</text><text xml:space="preserve" font-family="Helvetica-Light" font-size="37.2" fill="#FEFFFF" transform="matrix(1.00, 0.00, -0.00, -1.00, 388.1, 82.0)"> </text><text xml:space="preserve" font-family="Helvetica-Light" font-size="37.2" fill="#FEFFFF" transform="matrix(1.00, 0.00, -0.00, -1.00, 398.5, 82.0)">i</text><text xml:space="preserve" font-family="Helvetica-Light" font-size="37.2" fill="#FEFFFF" transform="matrix(1.00, 0.00, -0.00, -1.00, 406.7, 82.0)">s</text><text xml:space="preserve" font-family="Helvetica-Light" font-size="37.2" fill="#FEFFFF" transform="matrix(1.00, 0.00, -0.00, -1.00, 425.4, 82.0)"> </text><text xml:space="preserve" font-family="Helvetica-Light" font-size="37.2" fill="#FEFFFF" transform="matrix(1.00, 0.00, -0.00, -1.00, 435.7, 82.0)">s</text><text xml:space="preserve" font-family="Helvetica-Light" font-size="37.2" fill="#FEFFFF" transform="matrix(1.00, 0.00, -0.00, -1.00, 454.3, 82.0)">i</text><text xml:space="preserve" font-family="Helvetica-Light" font-size="37.2" fill="#FEFFFF" transform="matrix(1.00, 0.00, -0.00, -1.00, 462.6, 82.0)">n</text><text xml:space="preserve" font-family="Helvetica-Light" font-size="37.2" fill="#FEFFFF" transform="matrix(1.00, 0.00, -0.00, -1.00, 483.3, 82.0)">g</text><text xml:space="preserve" font-family="Helvetica-Light" font-size="37.2" fill="#FEFFFF" transform="matrix(1.00, 0.00, -0.00, -1.00, 506.1, 82.0)">l</text><text xml:space="preserve" font-family="Helvetica-Light" font-size="37.2" fill="#FEFFFF" transform="matrix(1.00, 0.00, -0.00, -1.00, 514.3, 82.0)">e</text><text xml:space="preserve" font-family="Helvetica-Light" font-size="37.2" fill="#FEFFFF" transform="matrix(1.00, 0.00, -0.00, -1.00, 535.0, 82.0)"> </text><text xml:space="preserve" font-family="Helvetica-Light" font-size="37.2" fill="#FEFFFF" transform="matrix(1.00, 0.00, -0.00, -1.00, 545.4, 82.0)">t</text><text xml:space="preserve" font-family="Helvetica-Light" font-size="37.2" fill="#FEFFFF" transform="matrix(1.00, 0.00, -0.00, -1.00, 555.7, 82.0)">h</text><text xml:space="preserve" font-family="Helvetica-Light" font-size="37.2" fill="#FEFFFF" transform="matrix(1.00, 0.00, -0.00, -1.00, 576.4, 82.0)">r</text><text xml:space="preserve" font-family="Helvetica-Light" font-size="37.2" fill="#FEFFFF" transform="matrix(1.00, 0.00, -0.00, -1.00, 588.2, 82.0)">e</text><text xml:space="preserve" font-family="Helvetica-Light" font-size="37.2" fill="#FEFFFF" transform="matrix(1.00, 0.00, -0.00, -1.00, 608.9, 82.0)">a</text><text xml:space="preserve" font-family="Helvetica-Light" font-size="37.2" fill="#FEFFFF" transform="matrix(1.00, 0.00, -0.00, -1.00, 629.6, 82.0)">d</text><text xml:space="preserve" font-family="Helvetica-Light" font-size="37.2" fill="#FEFFFF" transform="matrix(1.00, 0.00, -0.00, -1.00, 652.3, 82.0)">e</text><text xml:space="preserve" font-family="Helvetica-Light" font-size="37.2" fill="#FEFFFF" transform="matrix(1.00, 0.00, -0.00, -1.00, 673.0, 82.0)">d</text></g></svg>