<?xml version="1.0" encoding="UTF-8" standalone="no"?><svg xmlns="http://www.w3.org/2000/svg" xmlns:xlink="http://www.w3.org/1999/xlink" clip-rule="evenodd" stroke-miterlimit="4.00" viewBox="0 0 760 265"><desc>SVG generated by Keynote</desc><defs></defs><g transform="matrix(1.00, 0.00, -0.00, -1.00, 0.0, 265.0)"><text xml:space="preserve" font-family="CourierNewPSMT" font-size="30.0" fill="#FEFFFF" transform="matrix(1.00, 0.00, -0.00, -1.00, 2.0, 244.0)">w</text><text xml:space="preserve" font-family="CourierNewPSMT" font-size="30.0" fill="#FEFFFF" transform="matrix(1.00, 0.00, -0.00, -1.00, 20.0, 244.0)">h</text><text xml:space="preserve" font-family="CourierNewPSMT" font-size="30.0" fill="#FEFFFF" transform="matrix(1.00, 0.00, -0.00, -1.00, 38.0, 244.0)">i</text><text xml:space="preserve" font-family="CourierNewPSMT" font-size="30.0" fill="#FEFFFF" transform="matrix(1.00, 0.00, -0.00, -1.00, 56.0, 244.0)">l</text><text xml:space="preserve" font-family="CourierNewPSMT" font-size="30.0" fill="#FEFFFF" transform="matrix(1.00, 0.00, -0.00, -1.00, 74.0, 244.0)">e</text><text xml:space="preserve" font-family="CourierNewPSMT" font-size="30.0" fill="#FEFFFF" transform="matrix(1.00, 0.00, -0.00, -1.00, 92.0, 244.0)">(</text><text xml:space="preserve" font-family="CourierNewPSMT" font-size="30.0" fill="#FEFFFF" transform="matrix(1.00, 0.00, -0.00, -1.00, 110.0, 244.0)">e</text><text xml:space="preserve" font-family="CourierNewPSMT" font-size="30.0" fill="#FEFFFF" transform="matrix(1.00, 0.00, -0.00, -1.00, 128.0, 244.0)">v</text><text xml:space="preserve" font-family="CourierNewPSMT" font-size="30.0" fill="#FEFFFF" transform="matrix(1.00, 0.00, -0.00, -1.00, 146.0, 244.0)">e</text><text xml:space="preserve" font-family="CourierNewPSMT" font-size="30.0" fill="#FEFFFF" transform="matrix(1.00, 0.00, -0.00, -1.00, 164.1, 244.0)">n</text><text xml:space="preserve" font-family="CourierNewPSMT" font-size="30.0" fill="#FEFFFF" transform="matrix(1.00, 0.00, -0.00, -1.00, 182.1, 244.0)">t</text><text xml:space="preserve" font-family="CourierNewPSMT" font-size="30.0" fill="#FEFFFF" transform="matrix(1.00, 0.00, -0.00, -1.00, 200.1, 244.0)">s</text><text xml:space="preserve" font-family="CourierNewPSMT" font-size="30.0" fill="#FEFFFF" transform="matrix(1.00, 0.00, -0.00, -1.00, 218.1, 244.0)">.</text><text xml:space="preserve" font-family="CourierNewPSMT" font-size="30.0" fill="#FEFFFF" transform="matrix(1.00, 0.00, -0.00, -1.00, 236.1, 244.0)">e</text><text xml:space="preserve" font-family="CourierNewPSMT" font-size="30.0" fill="#FEFFFF" transform="matrix(1.00, 0.00, -0.00, -1.00, 254.1, 244.0)">x</text><text xml:space="preserve" font-family="CourierNewPSMT" font-size="30.0" fill="#FEFFFF" transform="matrix(1.00, 0.00, -0.00, -1.00, 272.1, 244.0)">i</text><text xml:space="preserve" font-family="CourierNewPSMT" font-size="30.0" fill="#FEFFFF" transform="matrix(1.00, 0.00, -0.00, -1.00, 290.1, 244.0)">s</text><text xml:space="preserve" font-family="CourierNewPSMT" font-size="30.0" fill="#FEFFFF" transform="matrix(1.00, 0.00, -0.00, -1.00, 308.1, 244.0)">t</text><text xml:space="preserve" font-family="CourierNewPSMT" font-size="30.0" fill="#FEFFFF" transform="matrix(1.00, 0.00, -0.00, -1.00, 326.1, 244.0)">(</text><text xml:space="preserve" font-family="CourierNewPSMT" font-size="30.0" fill="#FEFFFF" transform="matrix(1.00, 0.00, -0.00, -1.00, 344.1, 244.0)">)</text><text xml:space="preserve" font-family="CourierNewPSMT" font-size="30.0" fill="#FEFFFF" transform="matrix(1.00, 0.00, -0.00, -1.00, 362.1, 244.0)">)</text><text xml:space="preserve" font-family="CourierNewPSMT" font-size="30.0" fill="#FEFFFF" transform="matrix(1.00, 0.00, -0.00, -1.00, 380.1, 244.0)"> </text><text xml:space="preserve" font-family="CourierNewPSMT" font-size="30.0" fill="#FEFFFF" transform="matrix(1.00, 0.00, -0.00, -1.00, 398.1, 244.0)">{</text><text xml:space="preserve" font-family="CourierNewPSMT" font-size="30.0" fill="#FEFFFF" transform="matrix(1.00, 0.00, -0.00, -1.00, 416.1, 244.0)"> </text><text xml:space="preserve" font-family="CourierNewPSMT" font-size="30.0" fill="#FEFFFF" transform="matrix(1.00, 0.00, -0.00, -1.00, 38.0, 210.0)">e</text><text xml:space="preserve" font-family="CourierNewPSMT" font-size="30.0" fill="#FEFFFF" transform="matrix(1.00, 0.00, -0.00, -1.00, 56.0, 210.0)"> </text><text xml:space="preserve" font-family="CourierNewPSMT" font-size="30.0" fill="#FEFFFF" transform="matrix(1.00, 0.00, -0.00, -1.00, 74.0, 210.0)">=</text><text xml:space="preserve" font-family="CourierNewPSMT" font-size="30.0" fill="#FEFFFF" transform="matrix(1.00, 0.00, -0.00, -1.00, 92.0, 210.0)"> </text><text xml:space="preserve" font-family="CourierNewPSMT" font-size="30.0" fill="#FEFFFF" transform="matrix(1.00, 0.00, -0.00, -1.00, 110.0, 210.0)">e</text><text xml:space="preserve" font-family="CourierNewPSMT" font-size="30.0" fill="#FEFFFF" transform="matrix(1.00, 0.00, -0.00, -1.00, 128.0, 210.0)">v</text><text xml:space="preserve" font-family="CourierNewPSMT" font-size="30.0" fill="#FEFFFF" transform="matrix(1.00, 0.00, -0.00, -1.00, 146.0, 210.0)">e</text><text xml:space="preserve" font-family="CourierNewPSMT" font-size="30.0" fill="#FEFFFF" transform="matrix(1.00, 0.00, -0.00, -1.00, 164.0, 210.0)">n</text><text xml:space="preserve" font-family="CourierNewPSMT" font-size="30.0" fill="#FEFFFF" transform="matrix(1.00, 0.00, -0.00, -1.00, 182.0, 210.0)">t</text><text xml:space="preserve" font-family="CourierNewPSMT" font-size="30.0" fill="#FEFFFF" transform="matrix(1.00, 0.00, -0.00, -1.00, 200.1, 210.0)">s</text><text xml:space="preserve" font-family="CourierNewPSMT" font-size="30.0" fill="#FEFFFF" transform="matrix(1.00, 0.00, -0.00, -1.00, 218.1, 210.0)">.</text><text xml:space="preserve" font-family="CourierNewPSMT" font-size="30.0" fill="#FEFFFF" transform="matrix(1.00, 0.00, -0.00, -1.00, 236.1, 210.0)">n</text><text xml:space="preserve" font-family="CourierNewPSMT" font-size="30.0" fill="#FEFFFF" transform="matrix(1.00, 0.00, -0.00, -1.00, 254.1, 210.0)">e</text><text xml:space="preserve" font-family="CourierNewPSMT" font-size="30.0" fill="#FEFFFF" transform="matrix(1.00, 0.00, -0.00, -1.00, 272.1, 210.0)">x</text><text xml:space="preserve" font-family="CourierNewPSMT" font-size="30.0" fill="#FEFFFF" transform="matrix(1.00, 0.00, -0.00, -1.00, 290.1, 210.0)">t</text><text xml:space="preserve" font-family="CourierNewPSMT" font-size="30.0" fill="#FEFFFF" transform="matrix(1.00, 0.00, -0.00, -1.00, 308.1, 210.0)">(</text><text xml:space="preserve" font-family="CourierNewPSMT" font-size="30.0" fill="#FEFFFF" transform="matrix(1.00, 0.00, -0.00, -1.00, 326.1, 210.0)">)</text><text xml:space="preserve" font-family="CourierNewPSMT" font-size="30.0" fill="#FEFFFF" transform="matrix(1.00, 0.00, -0.00, -1.00, 344.1, 210.0)">;</text><text xml:space="preserve" font-family="CourierNewPSMT" font-size="30.0" fill="#FEFFFF" transform="matrix(1.00, 0.00, -0.00, -1.00, 362.1, 210.0)"> </text><text xml:space="preserve" font-family="CourierNewPSMT" font-size="30.0" fill="#FEFFFF" transform="matrix(1.00, 0.00, -0.00, -1.00, 38.0, 176.0)">t</text><text xml:space="preserve" font-family="CourierNewPSMT" font-size="30.0" fill="#FEFFFF" transform="matrix(1.00, 0.00, -0.00, -1.00, 56.0, 176.0)"> </text><text xml:space="preserve" font-family="CourierNewPSMT" font-size="30.0" fill="#FEFFFF" transform="matrix(1.00, 0.00, -0.00, -1.00, 74.0, 176.0)">=</text><text xml:space="preserve" font-family="CourierNewPSMT" font-size="30.0" fill="#FEFFFF" transform="matrix(1.00, 0.00, -0.00, -1.00, 92.0, 176.0)"> </text><text xml:space="preserve" font-family="CourierNewPSMT" font-size="30.0" fill="#FEFFFF" transform="matrix(1.00, 0.00, -0.00, -1.00, 110.0, 176.0)">t</text><text xml:space="preserve" font-family="CourierNewPSMT" font-size="30.0" fill="#FEFFFF" transform="matrix(1.00, 0.00, -0.00, -1.00, 128.0, 176.0)">h</text><text xml:space="preserve" font-family="CourierNewPSMT" font-size="30.0" fill="#FEFFFF" transform="matrix(1.00, 0.00, -0.00, -1.00, 146.0, 176.0)">r</text><text xml:space="preserve" font-family="CourierNewPSMT" font-size="30.0" fill="#FEFFFF" transform="matrix(1.00, 0.00, -0.00, -1.00, 164.0, 176.0)">e</text><text xml:space="preserve" font-family="CourierNewPSMT" font-size="30.0" fill="#FEFFFF" transform="matrix(1.00, 0.00, -0.00, -1.00, 182.0, 176.0)">a</text><text xml:space="preserve" font-family="CourierNewPSMT" font-size="30.0" fill="#FEFFFF" transform="matrix(1.00, 0.00, -0.00, -1.00, 200.1, 176.0)">d</text><text xml:space="preserve" font-family="CourierNewPSMT" font-size="30.0" fill="#FEFFFF" transform="matrix(1.00, 0.00, -0.00, -1.00, 218.1, 176.0)">(</text><text xml:space="preserve" font-family="CourierNewPSMT" font-size="30.0" fill="#FEFFFF" transform="matrix(1.00, 0.00, -0.00, -1.00, 236.1, 176.0)">e</text><text xml:space="preserve" font-family="CourierNewPSMT" font-size="30.0" fill="#FEFFFF" transform="matrix(1.00, 0.00, -0.00, -1.00, 254.1, 176.0)">)</text><text xml:space="preserve" font-family="CourierNewPSMT" font-size="30.0" fill="#FEFFFF" transform="matrix(1.00, 0.00, -0.00, -1.00, 272.1, 176.0)">;</text><text xml:space="preserve" font-family="CourierNewPSMT" font-size="30.0" fill="#FEFFFF" transform="matrix(1.00, 0.00, -0.00, -1.00, 290.1, 176.0)"> </text><text xml:space="preserve" font-family="CourierNewPSMT" font-size="30.0" fill="#FEFFFF" transform="matrix(1.00, 0.00, -0.00, -1.00, 38.0, 142.0)">i</text><text xml:space="preserve" font-family="CourierNewPSMT" font-size="30.0" fill="#FEFFFF" transform="matrix(1.00, 0.00, -0.00, -1.00, 56.0, 142.0)">f</text><text xml:space="preserve" font-family="CourierNewPSMT" font-size="30.0" fill="#FEFFFF" transform="matrix(1.00, 0.00, -0.00, -1.00, 74.0, 142.0)"> </text><text xml:space="preserve" font-family="CourierNewPSMT" font-size="30.0" fill="#FEFFFF" transform="matrix(1.00, 0.00, -0.00, -1.00, 92.0, 142.0)">(</text><text xml:space="preserve" font-family="CourierNewPSMT" font-size="30.0" fill="#FEFFFF" transform="matrix(1.00, 0.00, -0.00, -1.00, 110.0, 142.0)">t</text><text xml:space="preserve" font-family="CourierNewPSMT" font-size="30.0" fill="#FEFFFF" transform="matrix(1.00, 0.00, -0.00, -1.00, 128.0, 142.0)">.</text><text xml:space="preserve" font-family="CourierNewPSMT" font-size="30.0" fill="#FEFFFF" transform="matrix(1.00, 0.00, -0.00, -1.00, 146.0, 142.0)">i</text><text xml:space="preserve" font-family="CourierNewPSMT" font-size="30.0" fill="#FEFFFF" transform="matrix(1.00, 0.00, -0.00, -1.00, 164.0, 142.0)">s</text><text xml:space="preserve" font-family="CourierNewPSMT" font-size="30.0" fill="#FEFFFF" transform="matrix(1.00, 0.00, -0.00, -1.00, 182.0, 142.0)">C</text><text xml:space="preserve" font-family="CourierNewPSMT" font-size="30.0" fill="#FEFFFF" transform="matrix(1.00, 0.00, -0.00, -1.00, 200.1, 142.0)">o</text><text xml:space="preserve" font-family="CourierNewPSMT" font-size="30.0" fill="#FEFFFF" transform="matrix(1.00, 0.00, -0.00, -1.00, 218.1, 142.0)">m</text><text xml:space="preserve" font-family="CourierNewPSMT" font-size="30.0" fill="#FEFFFF" transform="matrix(1.00, 0.00, -0.00, -1.00, 236.1, 142.0)">p</text><text xml:space="preserve" font-family="CourierNewPSMT" font-size="30.0" fill="#FEFFFF" transform="matrix(1.00, 0.00, -0.00, -1.00, 254.1, 142.0)">l</text><text xml:space="preserve" font-family="CourierNewPSMT" font-size="30.0" fill="#FEFFFF" transform="matrix(1.00, 0.00, -0.00, -1.00, 272.1, 142.0)">e</text><text xml:space="preserve" font-family="CourierNewPSMT" font-size="30.0" fill="#FEFFFF" transform="matrix(1.00, 0.00, -0.00, -1.00, 290.1, 142.0)">t</text><text xml:space="preserve" font-family="CourierNewPSMT" font-size="30.0" fill="#FEFFFF" transform="matrix(1.00, 0.00, -0.00, -1.00, 308.1, 142.0)">e</text><text xml:space="preserve" font-family="CourierNewPSMT" font-size="30.0" fill="#FEFFFF" transform="matrix(1.00, 0.00, -0.00, -1.00, 326.1, 142.0)">(</text><text xml:space="preserve" font-family="CourierNewPSMT" font-size="30.0" fill="#FEFFFF" transform="matrix(1.00, 0.00, -0.00, -1.00, 344.1, 142.0)">)</text><text xml:space="preserve" font-family="CourierNewPSMT" font-size="30.0" fill="#FEFFFF" transform="matrix(1.00, 0.00, -0.00, -1.00, 362.1, 142.0)"> </text><text xml:space="preserve" font-family="CourierNewPSMT" font-size="30.0" fill="#FEFFFF" transform="matrix(1.00, 0.00, -0.00, -1.00, 380.1, 142.0)">&amp;</text><text xml:space="preserve" font-family="CourierNewPSMT" font-size="30.0" fill="#FEFFFF" transform="matrix(1.00, 0.00, -0.00, -1.00, 398.1, 142.0)">&amp;</text><text xml:space="preserve" font-family="CourierNewPSMT" font-size="30.0" fill="#FEFFFF" transform="matrix(1.00, 0.00, -0.00, -1.00, 416.1, 142.0)"> </text><text xml:space="preserve" font-family="CourierNewPSMT" font-size="30.0" fill="#FEFFFF" transform="matrix(1.00, 0.00, -0.00, -1.00, 434.1, 142.0)">t</text><text xml:space="preserve" font-family="CourierNewPSMT" font-size="30.0" fill="#FEFFFF" transform="matrix(1.00, 0.00, -0.00, -1.00, 452.1, 142.0)">.</text><text xml:space="preserve" font-family="CourierNewPSMT" font-size="30.0" fill="#FEFFFF" transform="matrix(1.00, 0.00, -0.00, -1.00, 470.1, 142.0)">h</text><text xml:space="preserve" font-family="CourierNewPSMT" font-size="30.0" fill="#FEFFFF" transform="matrix(1.00, 0.00, -0.00, -1.00, 488.1, 142.0)">a</text><text xml:space="preserve" font-family="CourierNewPSMT" font-size="30.0" fill="#FEFFFF" transform="matrix(1.00, 0.00, -0.00, -1.00, 506.2, 142.0)">s</text><text xml:space="preserve" font-family="CourierNewPSMT" font-size="30.0" fill="#FEFFFF" transform="matrix(1.00, 0.00, -0.00, -1.00, 524.2, 142.0)">C</text><text xml:space="preserve" font-family="CourierNewPSMT" font-size="30.0" fill="#FEFFFF" transform="matrix(1.00, 0.00, -0.00, -1.00, 542.2, 142.0)">a</text><text xml:space="preserve" font-family="CourierNewPSMT" font-size="30.0" fill="#FEFFFF" transform="matrix(1.00, 0.00, -0.00, -1.00, 560.2, 142.0)">l</text><text xml:space="preserve" font-family="CourierNewPSMT" font-size="30.0" fill="#FEFFFF" transform="matrix(1.00, 0.00, -0.00, -1.00, 578.2, 142.0)">l</text><text xml:space="preserve" font-family="CourierNewPSMT" font-size="30.0" fill="#FEFFFF" transform="matrix(1.00, 0.00, -0.00, -1.00, 596.2, 142.0)">b</text><text xml:space="preserve" font-family="CourierNewPSMT" font-size="30.0" fill="#FEFFFF" transform="matrix(1.00, 0.00, -0.00, -1.00, 614.2, 142.0)">a</text><text xml:space="preserve" font-family="CourierNewPSMT" font-size="30.0" fill="#FEFFFF" transform="matrix(1.00, 0.00, -0.00, -1.00, 632.2, 142.0)">c</text><text xml:space="preserve" font-family="CourierNewPSMT" font-size="30.0" fill="#FEFFFF" transform="matrix(1.00, 0.00, -0.00, -1.00, 650.2, 142.0)">k</text><text xml:space="preserve" font-family="CourierNewPSMT" font-size="30.0" fill="#FEFFFF" transform="matrix(1.00, 0.00, -0.00, -1.00, 668.2, 142.0)">(</text><text xml:space="preserve" font-family="CourierNewPSMT" font-size="30.0" fill="#FEFFFF" transform="matrix(1.00, 0.00, -0.00, -1.00, 686.2, 142.0)">)</text><text xml:space="preserve" font-family="CourierNewPSMT" font-size="30.0" fill="#FEFFFF" transform="matrix(1.00, 0.00, -0.00, -1.00, 704.2, 142.0)">)</text><text xml:space="preserve" font-family="CourierNewPSMT" font-size="30.0" fill="#FEFFFF" transform="matrix(1.00, 0.00, -0.00, -1.00, 722.2, 142.0)"> </text><text xml:space="preserve" font-family="CourierNewPSMT" font-size="30.0" fill="#FEFFFF" transform="matrix(1.00, 0.00, -0.00, -1.00, 740.2, 142.0)">{</text><text xml:space="preserve" font-family="CourierNewPSMT" font-size="30.0" fill="#FEFFFF" transform="matrix(1.00, 0.00, -0.00, -1.00, 758.2, 142.0)"> </text><text xml:space="preserve" font-family="CourierNewPSMT" font-size="30.0" fill="#FEFFFF" transform="matrix(1.00, 0.00, -0.00, -1.00, 74.0, 108.0)">c</text><text xml:space="preserve" font-family="CourierNewPSMT" font-size="30.0" fill="#FEFFFF" transform="matrix(1.00, 0.00, -0.00, -1.00, 92.0, 108.0)">b</text><text xml:space="preserve" font-family="CourierNewPSMT" font-size="30.0" fill="#FEFFFF" transform="matrix(1.00, 0.00, -0.00, -1.00, 110.0, 108.0)"> </text><text xml:space="preserve" font-family="CourierNewPSMT" font-size="30.0" fill="#FEFFFF" transform="matrix(1.00, 0.00, -0.00, -1.00, 128.0, 108.0)">=</text><text xml:space="preserve" font-family="CourierNewPSMT" font-size="30.0" fill="#FEFFFF" transform="matrix(1.00, 0.00, -0.00, -1.00, 146.0, 108.0)"> </text><text xml:space="preserve" font-family="CourierNewPSMT" font-size="30.0" fill="#FEFFFF" transform="matrix(1.00, 0.00, -0.00, -1.00, 164.0, 108.0)">t</text><text xml:space="preserve" font-family="CourierNewPSMT" font-size="30.0" fill="#FEFFFF" transform="matrix(1.00, 0.00, -0.00, -1.00, 182.0, 108.0)">.</text><text xml:space="preserve" font-family="CourierNewPSMT" font-size="30.0" fill="#FEFFFF" transform="matrix(1.00, 0.00, -0.00, -1.00, 200.0, 108.0)">c</text><text xml:space="preserve" font-family="CourierNewPSMT" font-size="30.0" fill="#FEFFFF" transform="matrix(1.00, 0.00, -0.00, -1.00, 218.0, 108.0)">a</text><text xml:space="preserve" font-family="CourierNewPSMT" font-size="30.0" fill="#FEFFFF" transform="matrix(1.00, 0.00, -0.00, -1.00, 236.1, 108.0)">l</text><text xml:space="preserve" font-family="CourierNewPSMT" font-size="30.0" fill="#FEFFFF" transform="matrix(1.00, 0.00, -0.00, -1.00, 254.1, 108.0)">l</text><text xml:space="preserve" font-family="CourierNewPSMT" font-size="30.0" fill="#FEFFFF" transform="matrix(1.00, 0.00, -0.00, -1.00, 272.1, 108.0)">B</text><text xml:space="preserve" font-family="CourierNewPSMT" font-size="30.0" fill="#FEFFFF" transform="matrix(1.00, 0.00, -0.00, -1.00, 290.1, 108.0)">a</text><text xml:space="preserve" font-family="CourierNewPSMT" font-size="30.0" fill="#FEFFFF" transform="matrix(1.00, 0.00, -0.00, -1.00, 308.1, 108.0)">c</text><text xml:space="preserve" font-family="CourierNewPSMT" font-size="30.0" fill="#FEFFFF" transform="matrix(1.00, 0.00, -0.00, -1.00, 326.1, 108.0)">k</text><text xml:space="preserve" font-family="CourierNewPSMT" font-size="30.0" fill="#FEFFFF" transform="matrix(1.00, 0.00, -0.00, -1.00, 344.1, 108.0)">(</text><text xml:space="preserve" font-family="CourierNewPSMT" font-size="30.0" fill="#FEFFFF" transform="matrix(1.00, 0.00, -0.00, -1.00, 362.1, 108.0)">)</text><text xml:space="preserve" font-family="CourierNewPSMT" font-size="30.0" fill="#FEFFFF" transform="matrix(1.00, 0.00, -0.00, -1.00, 380.1, 108.0)">;</text><text xml:space="preserve" font-family="CourierNewPSMT" font-size="30.0" fill="#FEFFFF" transform="matrix(1.00, 0.00, -0.00, -1.00, 398.1, 108.0)"> </text><text xml:space="preserve" font-family="CourierNewPSMT" font-size="30.0" fill="#FEFFFF" transform="matrix(1.00, 0.00, -0.00, -1.00, 74.0, 74.0)">c</text><text xml:space="preserve" font-family="CourierNewPSMT" font-size="30.0" fill="#FEFFFF" transform="matrix(1.00, 0.00, -0.00, -1.00, 92.0, 74.0)">b</text><text xml:space="preserve" font-family="CourierNewPSMT" font-size="30.0" fill="#FEFFFF" transform="matrix(1.00, 0.00, -0.00, -1.00, 110.0, 74.0)">(</text><text xml:space="preserve" font-family="CourierNewPSMT" font-size="30.0" fill="#FEFFFF" transform="matrix(1.00, 0.00, -0.00, -1.00, 128.0, 74.0)">)</text><text xml:space="preserve" font-family="CourierNewPSMT" font-size="30.0" fill="#FEFFFF" transform="matrix(1.00, 0.00, -0.00, -1.00, 146.0, 74.0)">;</text><text xml:space="preserve" font-family="CourierNewPSMT" font-size="30.0" fill="#FEFFFF" transform="matrix(1.00, 0.00, -0.00, -1.00, 164.0, 74.0)"> </text><text xml:space="preserve" font-family="CourierNewPSMT" font-size="30.0" fill="#FEFFFF" transform="matrix(1.00, 0.00, -0.00, -1.00, 38.0, 40.0)">}</text><text xml:space="preserve" font-family="CourierNewPSMT" font-size="30.0" fill="#FEFFFF" transform="matrix(1.00, 0.00, -0.00, -1.00, 56.0, 40.0)"> </text><text xml:space="preserve" font-family="CourierNewPSMT" font-size="30.0" fill="#FEFFFF" transform="matrix(1.00, 0.00, -0.00, -1.00, 2.0, 6.0)">}</text></g></svg>