<?xml version="1.0" encoding="UTF-8" standalone="no"?><svg xmlns="http://www.w3.org/2000/svg" xmlns:xlink="http://www.w3.org/1999/xlink" clip-rule="evenodd" stroke-miterlimit="4.00" viewBox="0 0 372 61"><desc>SVG generated by Keynote</desc><defs></defs><g transform="matrix(1.00, 0.00, -0.00, -1.00, 0.0, 61.0)"><text xml:space="preserve" font-family="Helvetica-Light" font-size="80.0" fill="#FEFFFF" transform="matrix(1.00, 0.00, -0.00, -1.00, -5.0, 2.0)">D</text><text xml:space="preserve" font-family="Helvetica-Light" font-size="80.0" fill="#FEFFFF" transform="matrix(1.00, 0.00, -0.00, -1.00, 52.8, 2.0)">i</text><text xml:space="preserve" font-family="Helvetica-Light" font-size="80.0" fill="#FEFFFF" transform="matrix(1.00, 0.00, -0.00, -1.00, 70.5, 2.0)">s</text><text xml:space="preserve" font-family="Helvetica-Light" font-size="80.0" fill="#FEFFFF" transform="matrix(1.00, 0.00, -0.00, -1.00, 110.5, 2.0)">c</text><text xml:space="preserve" font-family="Helvetica-Light" font-size="80.0" fill="#FEFFFF" transform="matrix(1.00, 0.00, -0.00, -1.00, 155.0, 2.0)">l</text><text xml:space="preserve" font-family="Helvetica-Light" font-size="80.0" fill="#FEFFFF" transform="matrix(1.00, 0.00, -0.00, -1.00, 172.8, 2.0)">a</text><text xml:space="preserve" font-family="Helvetica-Light" font-size="80.0" fill="#FEFFFF" transform="matrix(1.00, 0.00, -0.00, -1.00, 217.2, 2.0)">i</text><text xml:space="preserve" font-family="Helvetica-Light" font-size="80.0" fill="#FEFFFF" transform="matrix(1.00, 0.00, -0.00, -1.00, 235.0, 2.0)">m</text><text xml:space="preserve" font-family="Helvetica-Light" font-size="80.0" fill="#FEFFFF" transform="matrix(1.00, 0.00, -0.00, -1.00, 301.6, 2.0)">e</text><text xml:space="preserve" font-family="Helvetica-Light" font-size="80.0" fill="#FEFFFF" transform="matrix(1.00, 0.00, -0.00, -1.00, 346.1, 2.0)">r</text></g></svg>