<?xml version="1.0" encoding="UTF-8" standalone="no"?><svg xmlns="http://www.w3.org/2000/svg" xmlns:xlink="http://www.w3.org/1999/xlink" clip-rule="evenodd" stroke-miterlimit="4.00" viewBox="0 0 425 45"><desc>SVG generated by Keynote</desc><defs></defs><g transform="matrix(1.00, 0.00, -0.00, -1.00, 0.0, 45.0)"><path d="M 1.0 43.5 L 423.3 43.5 L 423.3 1.5 L 1.0 1.5 Z M 1.0 43.5 " fill="#FEFFFE"></path><g><clipPath id="clip-334"><path d="M -3.5 -3.0 L 427.8 -3.0 L 427.8 48.0 L -3.5 48.0 Z M -3.5 -3.0 "></path></clipPath><g clip-path="url(#clip-334)"><text xml:space="preserve" font-family="CourierNewPSMT" font-size="30.0" fill="#000000" transform="matrix(1.00, 0.00, -0.00, -1.00, 77.0, 14.0)">0</text><text xml:space="preserve" font-family="CourierNewPSMT" font-size="30.0" fill="#000000" transform="matrix(1.00, 0.00, -0.00, -1.00, 95.0, 14.0)"> </text><text xml:space="preserve" font-family="CourierNewPSMT" font-size="30.0" fill="#000000" transform="matrix(1.00, 0.00, -0.00, -1.00, 113.0, 14.0)">s</text><text xml:space="preserve" font-family="CourierNewPSMT" font-size="30.0" fill="#000000" transform="matrix(1.00, 0.00, -0.00, -1.00, 131.0, 14.0)">e</text><text xml:space="preserve" font-family="CourierNewPSMT" font-size="30.0" fill="#000000" transform="matrix(1.00, 0.00, -0.00, -1.00, 149.0, 14.0)">c</text><text xml:space="preserve" font-family="CourierNewPSMT" font-size="30.0" fill="#000000" transform="matrix(1.00, 0.00, -0.00, -1.00, 167.0, 14.0)">o</text><text xml:space="preserve" font-family="CourierNewPSMT" font-size="30.0" fill="#000000" transform="matrix(1.00, 0.00, -0.00, -1.00, 185.0, 14.0)">n</text><text xml:space="preserve" font-family="CourierNewPSMT" font-size="30.0" fill="#000000" transform="matrix(1.00, 0.00, -0.00, -1.00, 203.0, 14.0)">d</text><text xml:space="preserve" font-family="CourierNewPSMT" font-size="30.0" fill="#000000" transform="matrix(1.00, 0.00, -0.00, -1.00, 221.0, 14.0)">s</text><text xml:space="preserve" font-family="CourierNewPSMT" font-size="30.0" fill="#000000" transform="matrix(1.00, 0.00, -0.00, -1.00, 239.1, 14.0)"> </text><text xml:space="preserve" font-family="CourierNewPSMT" font-size="30.0" fill="#000000" transform="matrix(1.00, 0.00, -0.00, -1.00, 257.1, 14.0)">l</text><text xml:space="preserve" font-family="CourierNewPSMT" font-size="30.0" fill="#000000" transform="matrix(1.00, 0.00, -0.00, -1.00, 275.1, 14.0)">a</text><text xml:space="preserve" font-family="CourierNewPSMT" font-size="30.0" fill="#000000" transform="matrix(1.00, 0.00, -0.00, -1.00, 293.1, 14.0)">t</text><text xml:space="preserve" font-family="CourierNewPSMT" font-size="30.0" fill="#000000" transform="matrix(1.00, 0.00, -0.00, -1.00, 311.1, 14.0)">e</text><text xml:space="preserve" font-family="CourierNewPSMT" font-size="30.0" fill="#000000" transform="matrix(1.00, 0.00, -0.00, -1.00, 329.1, 14.0)">r</text></g></g></g></svg>