<?xml version="1.0" encoding="UTF-8" standalone="no"?><svg xmlns="http://www.w3.org/2000/svg" xmlns:xlink="http://www.w3.org/1999/xlink" clip-rule="evenodd" stroke-miterlimit="4.00" viewBox="0 0 291 47"><desc>SVG generated by Keynote</desc><defs></defs><g transform="matrix(1.00, 0.00, -0.00, -1.00, 0.0, 47.0)"><path d="M 0.0 0.0 L 286.9 0.0 L 286.9 43.0 L 0.0 43.0 Z M 0.0 0.0 " fill="none" stroke="#FEFFFE" stroke-width="1.00" transform="matrix(1.00, 0.00, 0.00, -1.00, 2.0, 44.9)"></path><g><clipPath id="clip-313"><path d="M -2.0 -2.1 L 292.8 -2.1 L 292.8 48.9 L -2.0 48.9 Z M -2.0 -2.1 "></path></clipPath><g clip-path="url(#clip-313)"><text xml:space="preserve" font-family="CourierNewPSMT" font-size="30.0" fill="#FEFFFF" transform="matrix(1.00, 0.00, -0.00, -1.00, 10.0, 15.0)">t</text><text xml:space="preserve" font-family="CourierNewPSMT" font-size="30.0" fill="#FEFFFF" transform="matrix(1.00, 0.00, -0.00, -1.00, 28.0, 15.0)">i</text><text xml:space="preserve" font-family="CourierNewPSMT" font-size="30.0" fill="#FEFFFF" transform="matrix(1.00, 0.00, -0.00, -1.00, 46.0, 15.0)">m</text><text xml:space="preserve" font-family="CourierNewPSMT" font-size="30.0" fill="#FEFFFF" transform="matrix(1.00, 0.00, -0.00, -1.00, 64.0, 15.0)">e</text><text xml:space="preserve" font-family="CourierNewPSMT" font-size="30.0" fill="#FEFFFF" transform="matrix(1.00, 0.00, -0.00, -1.00, 82.0, 15.0)">r</text><text xml:space="preserve" font-family="CourierNewPSMT" font-size="30.0" fill="#FEFFFF" transform="matrix(1.00, 0.00, -0.00, -1.00, 100.0, 15.0)">(</text><text xml:space="preserve" font-family="CourierNewPSMT" font-size="30.0" fill="#FEFFFF" transform="matrix(1.00, 0.00, -0.00, -1.00, 118.0, 15.0)">f</text><text xml:space="preserve" font-family="CourierNewPSMT" font-size="30.0" fill="#FEFFFF" transform="matrix(1.00, 0.00, -0.00, -1.00, 136.0, 15.0)">n</text><text xml:space="preserve" font-family="CourierNewPSMT" font-size="30.0" fill="#FEFFFF" transform="matrix(1.00, 0.00, -0.00, -1.00, 154.0, 15.0)">,</text><text xml:space="preserve" font-family="CourierNewPSMT" font-size="30.0" fill="#FEFFFF" transform="matrix(1.00, 0.00, -0.00, -1.00, 172.1, 15.0)">1</text><text xml:space="preserve" font-family="CourierNewPSMT" font-size="30.0" fill="#FEFFFF" transform="matrix(1.00, 0.00, -0.00, -1.00, 190.1, 15.0)">0</text><text xml:space="preserve" font-family="CourierNewPSMT" font-size="30.0" fill="#FEFFFF" transform="matrix(1.00, 0.00, -0.00, -1.00, 208.1, 15.0)">0</text><text xml:space="preserve" font-family="CourierNewPSMT" font-size="30.0" fill="#FEFFFF" transform="matrix(1.00, 0.00, -0.00, -1.00, 226.1, 15.0)">0</text><text xml:space="preserve" font-family="CourierNewPSMT" font-size="30.0" fill="#FEFFFF" transform="matrix(1.00, 0.00, -0.00, -1.00, 244.1, 15.0)">0</text><text xml:space="preserve" font-family="CourierNewPSMT" font-size="30.0" fill="#FEFFFF" transform="matrix(1.00, 0.00, -0.00, -1.00, 262.1, 15.0)">)</text></g></g></g></svg>