<?xml version="1.0" encoding="UTF-8" standalone="no"?><svg xmlns="http://www.w3.org/2000/svg" xmlns:xlink="http://www.w3.org/1999/xlink" clip-rule="evenodd" stroke-miterlimit="4.00" viewBox="0 0 1024 768"><desc>SVG generated by Keynote</desc><defs></defs><g transform="matrix(1.00, 0.00, -0.00, -1.00, 0.0, 768.0)"><path d="M 0.0 768.0 L 1024.0 768.0 L 1024.0 0.0 L 0.0 0.0 Z M 0.0 768.0 " fill="#000000"></path><path d="M 447.7 550.0 L 943.4 550.0 L 943.4 406.0 L 447.7 406.0 Z M 447.7 550.0 " fill="#1497FC"></path><path d="M 0.0 0.0 L 429.6 0.0 L 429.6 399.8 L 0.0 399.8 Z M 0.0 0.0 " fill="none" stroke="#FEFFFE" stroke-width="1.00" transform="matrix(1.00, 0.00, 0.00, -1.00, 10.9, 700.1)"></path><text xml:space="preserve" font-family="CourierNewPSMT" font-size="30.0" fill="#FEFFFF" transform="matrix(1.00, 0.00, -0.00, -1.00, 452.0, 667.0)">f</text><text xml:space="preserve" font-family="CourierNewPSMT" font-size="30.0" fill="#FEFFFF" transform="matrix(1.00, 0.00, -0.00, -1.00, 470.0, 667.0)">u</text><text xml:space="preserve" font-family="CourierNewPSMT" font-size="30.0" fill="#FEFFFF" transform="matrix(1.00, 0.00, -0.00, -1.00, 488.0, 667.0)">n</text><text xml:space="preserve" font-family="CourierNewPSMT" font-size="30.0" fill="#FEFFFF" transform="matrix(1.00, 0.00, -0.00, -1.00, 506.0, 667.0)">c</text><text xml:space="preserve" font-family="CourierNewPSMT" font-size="30.0" fill="#FEFFFF" transform="matrix(1.00, 0.00, -0.00, -1.00, 524.0, 667.0)">t</text><text xml:space="preserve" font-family="CourierNewPSMT" font-size="30.0" fill="#FEFFFF" transform="matrix(1.00, 0.00, -0.00, -1.00, 542.0, 667.0)">i</text><text xml:space="preserve" font-family="CourierNewPSMT" font-size="30.0" fill="#FEFFFF" transform="matrix(1.00, 0.00, -0.00, -1.00, 560.0, 667.0)">o</text><text xml:space="preserve" font-family="CourierNewPSMT" font-size="30.0" fill="#FEFFFF" transform="matrix(1.00, 0.00, -0.00, -1.00, 578.0, 667.0)">n</text><text xml:space="preserve" font-family="CourierNewPSMT" font-size="30.0" fill="#FEFFFF" transform="matrix(1.00, 0.00, -0.00, -1.00, 596.0, 667.0)"> </text><text xml:space="preserve" font-family="CourierNewPSMT" font-size="30.0" fill="#FEFFFF" transform="matrix(1.00, 0.00, -0.00, -1.00, 614.1, 667.0)">f</text><text xml:space="preserve" font-family="CourierNewPSMT" font-size="30.0" fill="#FEFFFF" transform="matrix(1.00, 0.00, -0.00, -1.00, 632.1, 667.0)">i</text><text xml:space="preserve" font-family="CourierNewPSMT" font-size="30.0" fill="#FEFFFF" transform="matrix(1.00, 0.00, -0.00, -1.00, 650.1, 667.0)">z</text><text xml:space="preserve" font-family="CourierNewPSMT" font-size="30.0" fill="#FEFFFF" transform="matrix(1.00, 0.00, -0.00, -1.00, 668.1, 667.0)">z</text><text xml:space="preserve" font-family="CourierNewPSMT" font-size="30.0" fill="#FEFFFF" transform="matrix(1.00, 0.00, -0.00, -1.00, 686.1, 667.0)">B</text><text xml:space="preserve" font-family="CourierNewPSMT" font-size="30.0" fill="#FEFFFF" transform="matrix(1.00, 0.00, -0.00, -1.00, 704.1, 667.0)">a</text><text xml:space="preserve" font-family="CourierNewPSMT" font-size="30.0" fill="#FEFFFF" transform="matrix(1.00, 0.00, -0.00, -1.00, 722.1, 667.0)">n</text><text xml:space="preserve" font-family="CourierNewPSMT" font-size="30.0" fill="#FEFFFF" transform="matrix(1.00, 0.00, -0.00, -1.00, 740.1, 667.0)">g</text><text xml:space="preserve" font-family="CourierNewPSMT" font-size="30.0" fill="#FEFFFF" transform="matrix(1.00, 0.00, -0.00, -1.00, 758.1, 667.0)">(</text><text xml:space="preserve" font-family="CourierNewPSMT" font-size="30.0" fill="#FEFFFF" transform="matrix(1.00, 0.00, -0.00, -1.00, 776.1, 667.0)">)</text><text xml:space="preserve" font-family="CourierNewPSMT" font-size="30.0" fill="#FEFFFF" transform="matrix(1.00, 0.00, -0.00, -1.00, 794.1, 667.0)">{</text><text xml:space="preserve" font-family="CourierNewPSMT" font-size="30.0" fill="#FEFFFF" transform="matrix(1.00, 0.00, -0.00, -1.00, 812.1, 667.0)"> </text><text xml:space="preserve" font-family="CourierNewPSMT" font-size="30.0" fill="#FEFFFF" transform="matrix(1.00, 0.00, -0.00, -1.00, 488.0, 633.0)">c</text><text xml:space="preserve" font-family="CourierNewPSMT" font-size="30.0" fill="#FEFFFF" transform="matrix(1.00, 0.00, -0.00, -1.00, 506.0, 633.0)">o</text><text xml:space="preserve" font-family="CourierNewPSMT" font-size="30.0" fill="#FEFFFF" transform="matrix(1.00, 0.00, -0.00, -1.00, 524.0, 633.0)">n</text><text xml:space="preserve" font-family="CourierNewPSMT" font-size="30.0" fill="#FEFFFF" transform="matrix(1.00, 0.00, -0.00, -1.00, 542.0, 633.0)">s</text><text xml:space="preserve" font-family="CourierNewPSMT" font-size="30.0" fill="#FEFFFF" transform="matrix(1.00, 0.00, -0.00, -1.00, 560.0, 633.0)">o</text><text xml:space="preserve" font-family="CourierNewPSMT" font-size="30.0" fill="#FEFFFF" transform="matrix(1.00, 0.00, -0.00, -1.00, 578.0, 633.0)">l</text><text xml:space="preserve" font-family="CourierNewPSMT" font-size="30.0" fill="#FEFFFF" transform="matrix(1.00, 0.00, -0.00, -1.00, 596.0, 633.0)">e</text><text xml:space="preserve" font-family="CourierNewPSMT" font-size="30.0" fill="#FEFFFF" transform="matrix(1.00, 0.00, -0.00, -1.00, 614.0, 633.0)">.</text><text xml:space="preserve" font-family="CourierNewPSMT" font-size="30.0" fill="#FEFFFF" transform="matrix(1.00, 0.00, -0.00, -1.00, 632.0, 633.0)">l</text><text xml:space="preserve" font-family="CourierNewPSMT" font-size="30.0" fill="#FEFFFF" transform="matrix(1.00, 0.00, -0.00, -1.00, 650.1, 633.0)">o</text><text xml:space="preserve" font-family="CourierNewPSMT" font-size="30.0" fill="#FEFFFF" transform="matrix(1.00, 0.00, -0.00, -1.00, 668.1, 633.0)">g</text><text xml:space="preserve" font-family="CourierNewPSMT" font-size="30.0" fill="#FEFFFF" transform="matrix(1.00, 0.00, -0.00, -1.00, 686.1, 633.0)">(</text><text xml:space="preserve" font-family="CourierNewPSMT" font-size="30.0" fill="#FEFFFF" transform="matrix(1.00, 0.00, -0.00, -1.00, 704.1, 633.0)">“</text><text xml:space="preserve" font-family="CourierNewPSMT" font-size="30.0" fill="#FEFFFF" transform="matrix(1.00, 0.00, -0.00, -1.00, 722.1, 633.0)">f</text><text xml:space="preserve" font-family="CourierNewPSMT" font-size="30.0" fill="#FEFFFF" transform="matrix(1.00, 0.00, -0.00, -1.00, 740.1, 633.0)">i</text><text xml:space="preserve" font-family="CourierNewPSMT" font-size="30.0" fill="#FEFFFF" transform="matrix(1.00, 0.00, -0.00, -1.00, 758.1, 633.0)">z</text><text xml:space="preserve" font-family="CourierNewPSMT" font-size="30.0" fill="#FEFFFF" transform="matrix(1.00, 0.00, -0.00, -1.00, 776.1, 633.0)">z</text><text xml:space="preserve" font-family="CourierNewPSMT" font-size="30.0" fill="#FEFFFF" transform="matrix(1.00, 0.00, -0.00, -1.00, 794.1, 633.0)">”</text><text xml:space="preserve" font-family="CourierNewPSMT" font-size="30.0" fill="#FEFFFF" transform="matrix(1.00, 0.00, -0.00, -1.00, 812.1, 633.0)">)</text><text xml:space="preserve" font-family="CourierNewPSMT" font-size="30.0" fill="#FEFFFF" transform="matrix(1.00, 0.00, -0.00, -1.00, 830.1, 633.0)">;</text><text xml:space="preserve" font-family="CourierNewPSMT" font-size="30.0" fill="#FEFFFF" transform="matrix(1.00, 0.00, -0.00, -1.00, 848.1, 633.0)"> </text><text xml:space="preserve" font-family="CourierNewPSMT" font-size="30.0" fill="#FEFFFF" transform="matrix(1.00, 0.00, -0.00, -1.00, 488.0, 599.0)">b</text><text xml:space="preserve" font-family="CourierNewPSMT" font-size="30.0" fill="#FEFFFF" transform="matrix(1.00, 0.00, -0.00, -1.00, 506.0, 599.0)">a</text><text xml:space="preserve" font-family="CourierNewPSMT" font-size="30.0" fill="#FEFFFF" transform="matrix(1.00, 0.00, -0.00, -1.00, 524.0, 599.0)">n</text><text xml:space="preserve" font-family="CourierNewPSMT" font-size="30.0" fill="#FEFFFF" transform="matrix(1.00, 0.00, -0.00, -1.00, 542.0, 599.0)">g</text><text xml:space="preserve" font-family="CourierNewPSMT" font-size="30.0" fill="#FEFFFF" transform="matrix(1.00, 0.00, -0.00, -1.00, 560.0, 599.0)">(</text><text xml:space="preserve" font-family="CourierNewPSMT" font-size="30.0" fill="#FEFFFF" transform="matrix(1.00, 0.00, -0.00, -1.00, 578.0, 599.0)">)</text><text xml:space="preserve" font-family="CourierNewPSMT" font-size="30.0" fill="#FEFFFF" transform="matrix(1.00, 0.00, -0.00, -1.00, 596.0, 599.0)">;</text><text xml:space="preserve" font-family="CourierNewPSMT" font-size="30.0" fill="#FEFFFF" transform="matrix(1.00, 0.00, -0.00, -1.00, 614.0, 599.0)"> </text><text xml:space="preserve" font-family="CourierNewPSMT" font-size="30.0" fill="#FEFFFF" transform="matrix(1.00, 0.00, -0.00, -1.00, 452.0, 565.0)">}</text><path d="M 0.0 0.0 L 422.3 0.0 L 422.3 43.0 L 0.0 43.0 Z M 0.0 0.0 " fill="none" stroke="#FEFFFE" stroke-width="1.00" transform="matrix(1.00, 0.00, 0.00, -1.00, 14.5, 347.0)"></path><g><clipPath id="clip-263"><path d="M 10.5 300.0 L 440.8 300.0 L 440.8 351.0 L 10.5 351.0 Z M 10.5 300.0 "></path></clipPath><g clip-path="url(#clip-263)"><text xml:space="preserve" font-family="CourierNewPSMT" font-size="30.0" fill="#FEFFFF" transform="matrix(1.00, 0.00, -0.00, -1.00, 136.0, 317.0)">f</text><text xml:space="preserve" font-family="CourierNewPSMT" font-size="30.0" fill="#FEFFFF" transform="matrix(1.00, 0.00, -0.00, -1.00, 154.0, 317.0)">i</text><text xml:space="preserve" font-family="CourierNewPSMT" font-size="30.0" fill="#FEFFFF" transform="matrix(1.00, 0.00, -0.00, -1.00, 172.0, 317.0)">z</text><text xml:space="preserve" font-family="CourierNewPSMT" font-size="30.0" fill="#FEFFFF" transform="matrix(1.00, 0.00, -0.00, -1.00, 190.0, 317.0)">z</text><text xml:space="preserve" font-family="CourierNewPSMT" font-size="30.0" fill="#FEFFFF" transform="matrix(1.00, 0.00, -0.00, -1.00, 208.0, 317.0)">B</text><text xml:space="preserve" font-family="CourierNewPSMT" font-size="30.0" fill="#FEFFFF" transform="matrix(1.00, 0.00, -0.00, -1.00, 226.0, 317.0)">a</text><text xml:space="preserve" font-family="CourierNewPSMT" font-size="30.0" fill="#FEFFFF" transform="matrix(1.00, 0.00, -0.00, -1.00, 244.0, 317.0)">n</text><text xml:space="preserve" font-family="CourierNewPSMT" font-size="30.0" fill="#FEFFFF" transform="matrix(1.00, 0.00, -0.00, -1.00, 262.0, 317.0)">g</text><text xml:space="preserve" font-family="CourierNewPSMT" font-size="30.0" fill="#FEFFFF" transform="matrix(1.00, 0.00, -0.00, -1.00, 280.0, 317.0)">(</text><text xml:space="preserve" font-family="CourierNewPSMT" font-size="30.0" fill="#FEFFFF" transform="matrix(1.00, 0.00, -0.00, -1.00, 298.1, 317.0)">)</text></g></g><path d="M 0.0 0.0 L 429.6 0.0 L 429.6 200.0 L 0.0 200.0 Z M 0.0 0.0 " fill="none" stroke="#FEFFFE" stroke-width="1.00" transform="matrix(1.00, 0.00, 0.00, -1.00, 10.9, 210.6)"></path><path d="M 0.0 0.0 L 422.3 0.0 L 422.3 43.0 L 0.0 43.0 Z M 0.0 0.0 " fill="none" stroke="#FEFFFE" stroke-width="1.00" transform="matrix(1.00, 0.00, 0.00, -1.00, 14.5, 57.1)"></path><g><clipPath id="clip-264"><path d="M 10.5 10.1 L 440.8 10.1 L 440.8 61.1 L 10.5 61.1 Z M 10.5 10.1 "></path></clipPath><g clip-path="url(#clip-264)"><text xml:space="preserve" font-family="CourierNewPSMT" font-size="30.0" fill="#FEFFFF" transform="matrix(1.00, 0.00, -0.00, -1.00, 190.0, 28.0)">f</text><text xml:space="preserve" font-family="CourierNewPSMT" font-size="30.0" fill="#FEFFFF" transform="matrix(1.00, 0.00, -0.00, -1.00, 208.0, 28.0)">i</text><text xml:space="preserve" font-family="CourierNewPSMT" font-size="30.0" fill="#FEFFFF" transform="matrix(1.00, 0.00, -0.00, -1.00, 226.0, 28.0)">z</text><text xml:space="preserve" font-family="CourierNewPSMT" font-size="30.0" fill="#FEFFFF" transform="matrix(1.00, 0.00, -0.00, -1.00, 244.0, 28.0)">z</text></g></g><text xml:space="preserve" font-family="CourierNewPSMT" font-size="30.0" fill="#FEFFFF" transform="matrix(1.00, 0.00, -0.00, -1.00, 452.0, 521.0)">f</text><text xml:space="preserve" font-family="CourierNewPSMT" font-size="30.0" fill="#FEFFFF" transform="matrix(1.00, 0.00, -0.00, -1.00, 470.0, 521.0)">u</text><text xml:space="preserve" font-family="CourierNewPSMT" font-size="30.0" fill="#FEFFFF" transform="matrix(1.00, 0.00, -0.00, -1.00, 488.0, 521.0)">n</text><text xml:space="preserve" font-family="CourierNewPSMT" font-size="30.0" fill="#FEFFFF" transform="matrix(1.00, 0.00, -0.00, -1.00, 506.0, 521.0)">c</text><text xml:space="preserve" font-family="CourierNewPSMT" font-size="30.0" fill="#FEFFFF" transform="matrix(1.00, 0.00, -0.00, -1.00, 524.0, 521.0)">t</text><text xml:space="preserve" font-family="CourierNewPSMT" font-size="30.0" fill="#FEFFFF" transform="matrix(1.00, 0.00, -0.00, -1.00, 542.0, 521.0)">i</text><text xml:space="preserve" font-family="CourierNewPSMT" font-size="30.0" fill="#FEFFFF" transform="matrix(1.00, 0.00, -0.00, -1.00, 560.0, 521.0)">o</text><text xml:space="preserve" font-family="CourierNewPSMT" font-size="30.0" fill="#FEFFFF" transform="matrix(1.00, 0.00, -0.00, -1.00, 578.0, 521.0)">n</text><text xml:space="preserve" font-family="CourierNewPSMT" font-size="30.0" fill="#FEFFFF" transform="matrix(1.00, 0.00, -0.00, -1.00, 596.0, 521.0)"> </text><text xml:space="preserve" font-family="CourierNewPSMT" font-size="30.0" fill="#FEFFFF" transform="matrix(1.00, 0.00, -0.00, -1.00, 614.1, 521.0)">b</text><text xml:space="preserve" font-family="CourierNewPSMT" font-size="30.0" fill="#FEFFFF" transform="matrix(1.00, 0.00, -0.00, -1.00, 632.1, 521.0)">a</text><text xml:space="preserve" font-family="CourierNewPSMT" font-size="30.0" fill="#FEFFFF" transform="matrix(1.00, 0.00, -0.00, -1.00, 650.1, 521.0)">n</text><text xml:space="preserve" font-family="CourierNewPSMT" font-size="30.0" fill="#FEFFFF" transform="matrix(1.00, 0.00, -0.00, -1.00, 668.1, 521.0)">g</text><text xml:space="preserve" font-family="CourierNewPSMT" font-size="30.0" fill="#FEFFFF" transform="matrix(1.00, 0.00, -0.00, -1.00, 686.1, 521.0)">(</text><text xml:space="preserve" font-family="CourierNewPSMT" font-size="30.0" fill="#FEFFFF" transform="matrix(1.00, 0.00, -0.00, -1.00, 704.1, 521.0)">)</text><text xml:space="preserve" font-family="CourierNewPSMT" font-size="30.0" fill="#FEFFFF" transform="matrix(1.00, 0.00, -0.00, -1.00, 722.1, 521.0)"> </text><text xml:space="preserve" font-family="CourierNewPSMT" font-size="30.0" fill="#FEFFFF" transform="matrix(1.00, 0.00, -0.00, -1.00, 740.1, 521.0)">{</text><text xml:space="preserve" font-family="CourierNewPSMT" font-size="30.0" fill="#FEFFFF" transform="matrix(1.00, 0.00, -0.00, -1.00, 758.1, 521.0)"> </text><text xml:space="preserve" font-family="CourierNewPSMT" font-size="30.0" fill="#FEFFFF" transform="matrix(1.00, 0.00, -0.00, -1.00, 488.0, 487.0)">f</text><text xml:space="preserve" font-family="CourierNewPSMT" font-size="30.0" fill="#FEFFFF" transform="matrix(1.00, 0.00, -0.00, -1.00, 506.0, 487.0)">o</text><text xml:space="preserve" font-family="CourierNewPSMT" font-size="30.0" fill="#FEFFFF" transform="matrix(1.00, 0.00, -0.00, -1.00, 524.0, 487.0)">r</text><text xml:space="preserve" font-family="CourierNewPSMT" font-size="30.0" fill="#FEFFFF" transform="matrix(1.00, 0.00, -0.00, -1.00, 542.0, 487.0)">(</text><text xml:space="preserve" font-family="CourierNewPSMT" font-size="30.0" fill="#FEFFFF" transform="matrix(1.00, 0.00, -0.00, -1.00, 560.0, 487.0)">i</text><text xml:space="preserve" font-family="CourierNewPSMT" font-size="30.0" fill="#FEFFFF" transform="matrix(1.00, 0.00, -0.00, -1.00, 578.0, 487.0)">=</text><text xml:space="preserve" font-family="CourierNewPSMT" font-size="30.0" fill="#FEFFFF" transform="matrix(1.00, 0.00, -0.00, -1.00, 596.0, 487.0)">0</text><text xml:space="preserve" font-family="CourierNewPSMT" font-size="30.0" fill="#FEFFFF" transform="matrix(1.00, 0.00, -0.00, -1.00, 614.0, 487.0)">;</text><text xml:space="preserve" font-family="CourierNewPSMT" font-size="30.0" fill="#FEFFFF" transform="matrix(1.00, 0.00, -0.00, -1.00, 632.0, 487.0)">i</text><text xml:space="preserve" font-family="CourierNewPSMT" font-size="30.0" fill="#FEFFFF" transform="matrix(1.00, 0.00, -0.00, -1.00, 650.1, 487.0)">&lt;</text><text xml:space="preserve" font-family="CourierNewPSMT" font-size="30.0" fill="#FEFFFF" transform="matrix(1.00, 0.00, -0.00, -1.00, 668.1, 487.0)">9</text><text xml:space="preserve" font-family="CourierNewPSMT" font-size="30.0" fill="#FEFFFF" transform="matrix(1.00, 0.00, -0.00, -1.00, 686.1, 487.0)">9</text><text xml:space="preserve" font-family="CourierNewPSMT" font-size="30.0" fill="#FEFFFF" transform="matrix(1.00, 0.00, -0.00, -1.00, 704.1, 487.0)">9</text><text xml:space="preserve" font-family="CourierNewPSMT" font-size="30.0" fill="#FEFFFF" transform="matrix(1.00, 0.00, -0.00, -1.00, 722.1, 487.0)">9</text><text xml:space="preserve" font-family="CourierNewPSMT" font-size="30.0" fill="#FEFFFF" transform="matrix(1.00, 0.00, -0.00, -1.00, 740.1, 487.0)">9</text><text xml:space="preserve" font-family="CourierNewPSMT" font-size="30.0" fill="#FEFFFF" transform="matrix(1.00, 0.00, -0.00, -1.00, 758.1, 487.0)">9</text><text xml:space="preserve" font-family="CourierNewPSMT" font-size="30.0" fill="#FEFFFF" transform="matrix(1.00, 0.00, -0.00, -1.00, 776.1, 487.0)">;</text><text xml:space="preserve" font-family="CourierNewPSMT" font-size="30.0" fill="#FEFFFF" transform="matrix(1.00, 0.00, -0.00, -1.00, 794.1, 487.0)">i</text><text xml:space="preserve" font-family="CourierNewPSMT" font-size="30.0" fill="#FEFFFF" transform="matrix(1.00, 0.00, -0.00, -1.00, 812.1, 487.0)">+</text><text xml:space="preserve" font-family="CourierNewPSMT" font-size="30.0" fill="#FEFFFF" transform="matrix(1.00, 0.00, -0.00, -1.00, 830.1, 487.0)">+</text><text xml:space="preserve" font-family="CourierNewPSMT" font-size="30.0" fill="#FEFFFF" transform="matrix(1.00, 0.00, -0.00, -1.00, 848.1, 487.0)">)</text><text xml:space="preserve" font-family="CourierNewPSMT" font-size="30.0" fill="#FEFFFF" transform="matrix(1.00, 0.00, -0.00, -1.00, 866.1, 487.0)">{</text><text xml:space="preserve" font-family="CourierNewPSMT" font-size="30.0" fill="#FEFFFF" transform="matrix(1.00, 0.00, -0.00, -1.00, 884.1, 487.0)">…</text><text xml:space="preserve" font-family="CourierNewPSMT" font-size="30.0" fill="#FEFFFF" transform="matrix(1.00, 0.00, -0.00, -1.00, 902.1, 487.0)">}</text><text xml:space="preserve" font-family="CourierNewPSMT" font-size="30.0" fill="#FEFFFF" transform="matrix(1.00, 0.00, -0.00, -1.00, 920.1, 487.0)">;</text><text xml:space="preserve" font-family="CourierNewPSMT" font-size="30.0" fill="#FEFFFF" transform="matrix(1.00, 0.00, -0.00, -1.00, 938.1, 487.0)"> </text><text xml:space="preserve" font-family="CourierNewPSMT" font-size="30.0" fill="#FEFFFF" transform="matrix(1.00, 0.00, -0.00, -1.00, 488.0, 453.0)">c</text><text xml:space="preserve" font-family="CourierNewPSMT" font-size="30.0" fill="#FEFFFF" transform="matrix(1.00, 0.00, -0.00, -1.00, 506.0, 453.0)">o</text><text xml:space="preserve" font-family="CourierNewPSMT" font-size="30.0" fill="#FEFFFF" transform="matrix(1.00, 0.00, -0.00, -1.00, 524.0, 453.0)">n</text><text xml:space="preserve" font-family="CourierNewPSMT" font-size="30.0" fill="#FEFFFF" transform="matrix(1.00, 0.00, -0.00, -1.00, 542.0, 453.0)">s</text><text xml:space="preserve" font-family="CourierNewPSMT" font-size="30.0" fill="#FEFFFF" transform="matrix(1.00, 0.00, -0.00, -1.00, 560.0, 453.0)">o</text><text xml:space="preserve" font-family="CourierNewPSMT" font-size="30.0" fill="#FEFFFF" transform="matrix(1.00, 0.00, -0.00, -1.00, 578.0, 453.0)">l</text><text xml:space="preserve" font-family="CourierNewPSMT" font-size="30.0" fill="#FEFFFF" transform="matrix(1.00, 0.00, -0.00, -1.00, 596.0, 453.0)">e</text><text xml:space="preserve" font-family="CourierNewPSMT" font-size="30.0" fill="#FEFFFF" transform="matrix(1.00, 0.00, -0.00, -1.00, 614.0, 453.0)">.</text><text xml:space="preserve" font-family="CourierNewPSMT" font-size="30.0" fill="#FEFFFF" transform="matrix(1.00, 0.00, -0.00, -1.00, 632.0, 453.0)">l</text><text xml:space="preserve" font-family="CourierNewPSMT" font-size="30.0" fill="#FEFFFF" transform="matrix(1.00, 0.00, -0.00, -1.00, 650.1, 453.0)">o</text><text xml:space="preserve" font-family="CourierNewPSMT" font-size="30.0" fill="#FEFFFF" transform="matrix(1.00, 0.00, -0.00, -1.00, 668.1, 453.0)">g</text><text xml:space="preserve" font-family="CourierNewPSMT" font-size="30.0" fill="#FEFFFF" transform="matrix(1.00, 0.00, -0.00, -1.00, 686.1, 453.0)">(</text><text xml:space="preserve" font-family="CourierNewPSMT" font-size="30.0" fill="#FEFFFF" transform="matrix(1.00, 0.00, -0.00, -1.00, 704.1, 453.0)">“</text><text xml:space="preserve" font-family="CourierNewPSMT" font-size="30.0" fill="#FEFFFF" transform="matrix(1.00, 0.00, -0.00, -1.00, 722.1, 453.0)">b</text><text xml:space="preserve" font-family="CourierNewPSMT" font-size="30.0" fill="#FEFFFF" transform="matrix(1.00, 0.00, -0.00, -1.00, 740.1, 453.0)">a</text><text xml:space="preserve" font-family="CourierNewPSMT" font-size="30.0" fill="#FEFFFF" transform="matrix(1.00, 0.00, -0.00, -1.00, 758.1, 453.0)">n</text><text xml:space="preserve" font-family="CourierNewPSMT" font-size="30.0" fill="#FEFFFF" transform="matrix(1.00, 0.00, -0.00, -1.00, 776.1, 453.0)">g</text><text xml:space="preserve" font-family="CourierNewPSMT" font-size="30.0" fill="#FEFFFF" transform="matrix(1.00, 0.00, -0.00, -1.00, 794.1, 453.0)">”</text><text xml:space="preserve" font-family="CourierNewPSMT" font-size="30.0" fill="#FEFFFF" transform="matrix(1.00, 0.00, -0.00, -1.00, 812.1, 453.0)">)</text><text xml:space="preserve" font-family="CourierNewPSMT" font-size="30.0" fill="#FEFFFF" transform="matrix(1.00, 0.00, -0.00, -1.00, 830.1, 453.0)">;</text><text xml:space="preserve" font-family="CourierNewPSMT" font-size="30.0" fill="#FEFFFF" transform="matrix(1.00, 0.00, -0.00, -1.00, 848.1, 453.0)"> </text><text xml:space="preserve" font-family="CourierNewPSMT" font-size="30.0" fill="#FEFFFF" transform="matrix(1.00, 0.00, -0.00, -1.00, 452.0, 419.0)">}</text><text xml:space="preserve" font-family="CourierNewPSMT" font-size="30.0" fill="#FEFFFF" transform="matrix(1.00, 0.00, -0.00, -1.00, 452.0, 375.0)">f</text><text xml:space="preserve" font-family="CourierNewPSMT" font-size="30.0" fill="#FEFFFF" transform="matrix(1.00, 0.00, -0.00, -1.00, 470.0, 375.0)">i</text><text xml:space="preserve" font-family="CourierNewPSMT" font-size="30.0" fill="#FEFFFF" transform="matrix(1.00, 0.00, -0.00, -1.00, 488.0, 375.0)">z</text><text xml:space="preserve" font-family="CourierNewPSMT" font-size="30.0" fill="#FEFFFF" transform="matrix(1.00, 0.00, -0.00, -1.00, 506.0, 375.0)">z</text><text xml:space="preserve" font-family="CourierNewPSMT" font-size="30.0" fill="#FEFFFF" transform="matrix(1.00, 0.00, -0.00, -1.00, 524.0, 375.0)">B</text><text xml:space="preserve" font-family="CourierNewPSMT" font-size="30.0" fill="#FEFFFF" transform="matrix(1.00, 0.00, -0.00, -1.00, 542.0, 375.0)">a</text><text xml:space="preserve" font-family="CourierNewPSMT" font-size="30.0" fill="#FEFFFF" transform="matrix(1.00, 0.00, -0.00, -1.00, 560.0, 375.0)">n</text><text xml:space="preserve" font-family="CourierNewPSMT" font-size="30.0" fill="#FEFFFF" transform="matrix(1.00, 0.00, -0.00, -1.00, 578.0, 375.0)">g</text><text xml:space="preserve" font-family="CourierNewPSMT" font-size="30.0" fill="#FEFFFF" transform="matrix(1.00, 0.00, -0.00, -1.00, 596.0, 375.0)">(</text><text xml:space="preserve" font-family="CourierNewPSMT" font-size="30.0" fill="#FEFFFF" transform="matrix(1.00, 0.00, -0.00, -1.00, 614.1, 375.0)">)</text><text xml:space="preserve" font-family="CourierNewPSMT" font-size="30.0" fill="#FEFFFF" transform="matrix(1.00, 0.00, -0.00, -1.00, 632.1, 375.0)">;</text><path d="M 0.0 0.0 L 505.2 0.0 L 505.2 400.0 L 0.0 400.0 Z M 0.0 0.0 " fill="none" stroke="#FEFFFE" stroke-width="1.00" transform="matrix(1.00, 0.00, 0.00, -1.00, 442.9, 700.2)"></path><text xml:space="preserve" font-family="Helvetica-Light" font-size="38.0" fill="#FEFFFF" transform="matrix(1.00, 0.00, -0.00, -1.00, 15.0, 226.0)">C</text><text xml:space="preserve" font-family="Helvetica-Light" font-size="38.0" fill="#FEFFFF" transform="matrix(1.00, 0.00, -0.00, -1.00, 42.4, 226.0)">o</text><text xml:space="preserve" font-family="Helvetica-Light" font-size="38.0" fill="#FEFFFF" transform="matrix(1.00, 0.00, -0.00, -1.00, 63.6, 226.0)">n</text><text xml:space="preserve" font-family="Helvetica-Light" font-size="38.0" fill="#FEFFFF" transform="matrix(1.00, 0.00, -0.00, -1.00, 84.7, 226.0)">s</text><text xml:space="preserve" font-family="Helvetica-Light" font-size="38.0" fill="#FEFFFF" transform="matrix(1.00, 0.00, -0.00, -1.00, 103.7, 226.0)">o</text><text xml:space="preserve" font-family="Helvetica-Light" font-size="38.0" fill="#FEFFFF" transform="matrix(1.00, 0.00, -0.00, -1.00, 124.8, 226.0)">l</text><text xml:space="preserve" font-family="Helvetica-Light" font-size="38.0" fill="#FEFFFF" transform="matrix(1.00, 0.00, -0.00, -1.00, 133.3, 226.0)">e</text><text xml:space="preserve" font-family="Helvetica-Light" font-size="38.0" fill="#FEFFFF" transform="matrix(1.00, 0.00, -0.00, -1.00, 15.0, 715.0)">C</text><text xml:space="preserve" font-family="Helvetica-Light" font-size="38.0" fill="#FEFFFF" transform="matrix(1.00, 0.00, -0.00, -1.00, 42.4, 715.0)">a</text><text xml:space="preserve" font-family="Helvetica-Light" font-size="38.0" fill="#FEFFFF" transform="matrix(1.00, 0.00, -0.00, -1.00, 63.6, 715.0)">l</text><text xml:space="preserve" font-family="Helvetica-Light" font-size="38.0" fill="#FEFFFF" transform="matrix(1.00, 0.00, -0.00, -1.00, 72.0, 715.0)">l</text><text xml:space="preserve" font-family="Helvetica-Light" font-size="38.0" fill="#FEFFFF" transform="matrix(1.00, 0.00, -0.00, -1.00, 80.4, 715.0)"> </text><text xml:space="preserve" font-family="Helvetica-Light" font-size="38.0" fill="#FEFFFF" transform="matrix(1.00, 0.00, -0.00, -1.00, 91.0, 715.0)">S</text><text xml:space="preserve" font-family="Helvetica-Light" font-size="38.0" fill="#FEFFFF" transform="matrix(1.00, 0.00, -0.00, -1.00, 114.2, 715.0)">t</text><text xml:space="preserve" font-family="Helvetica-Light" font-size="38.0" fill="#FEFFFF" transform="matrix(1.00, 0.00, -0.00, -1.00, 124.8, 715.0)">a</text><text xml:space="preserve" font-family="Helvetica-Light" font-size="38.0" fill="#FEFFFF" transform="matrix(1.00, 0.00, -0.00, -1.00, 145.9, 715.0)">c</text><text xml:space="preserve" font-family="Helvetica-Light" font-size="38.0" fill="#FEFFFF" transform="matrix(1.00, 0.00, -0.00, -1.00, 167.0, 715.0)">k</text><path d="M 0.0 0.0 L 422.3 0.0 L 422.3 43.0 L 0.0 43.0 Z M 0.0 0.0 " fill="none" stroke="#FEFFFE" stroke-width="1.00" transform="matrix(1.00, 0.00, 0.00, -1.00, 14.5, 393.3)"></path><g><clipPath id="clip-265"><path d="M 10.5 346.3 L 440.8 346.3 L 440.8 397.3 L 10.5 397.3 Z M 10.5 346.3 "></path></clipPath><g clip-path="url(#clip-265)"><text xml:space="preserve" font-family="CourierNewPSMT" font-size="30.0" fill="#FEFFFF" transform="matrix(1.00, 0.00, -0.00, -1.00, 172.0, 364.0)">b</text><text xml:space="preserve" font-family="CourierNewPSMT" font-size="30.0" fill="#FEFFFF" transform="matrix(1.00, 0.00, -0.00, -1.00, 190.0, 364.0)">a</text><text xml:space="preserve" font-family="CourierNewPSMT" font-size="30.0" fill="#FEFFFF" transform="matrix(1.00, 0.00, -0.00, -1.00, 208.0, 364.0)">n</text><text xml:space="preserve" font-family="CourierNewPSMT" font-size="30.0" fill="#FEFFFF" transform="matrix(1.00, 0.00, -0.00, -1.00, 226.0, 364.0)">g</text><text xml:space="preserve" font-family="CourierNewPSMT" font-size="30.0" fill="#FEFFFF" transform="matrix(1.00, 0.00, -0.00, -1.00, 244.0, 364.0)">(</text><text xml:space="preserve" font-family="CourierNewPSMT" font-size="30.0" fill="#FEFFFF" transform="matrix(1.00, 0.00, -0.00, -1.00, 262.0, 364.0)">)</text></g></g><path d="M 14.5 439.1 L 436.8 439.1 L 436.8 397.1 L 14.5 397.1 Z M 14.5 439.1 " fill="#FEFFFE"></path><g><clipPath id="clip-266"><path d="M 10.0 392.7 L 441.3 392.7 L 441.3 443.6 L 10.0 443.6 Z M 10.0 392.7 "></path></clipPath><g clip-path="url(#clip-266)"><text xml:space="preserve" font-family="CourierNewPSMT" font-size="30.0" fill="#000000" transform="matrix(1.00, 0.00, -0.00, -1.00, 64.0, 410.0)">w</text><text xml:space="preserve" font-family="CourierNewPSMT" font-size="30.0" fill="#000000" transform="matrix(1.00, 0.00, -0.00, -1.00, 82.0, 410.0)">h</text><text xml:space="preserve" font-family="CourierNewPSMT" font-size="30.0" fill="#000000" transform="matrix(1.00, 0.00, -0.00, -1.00, 100.0, 410.0)">e</text><text xml:space="preserve" font-family="CourierNewPSMT" font-size="30.0" fill="#000000" transform="matrix(1.00, 0.00, -0.00, -1.00, 118.0, 410.0)">r</text><text xml:space="preserve" font-family="CourierNewPSMT" font-size="30.0" fill="#000000" transform="matrix(1.00, 0.00, -0.00, -1.00, 136.0, 410.0)">e</text><text xml:space="preserve" font-family="CourierNewPSMT" font-size="30.0" fill="#000000" transform="matrix(1.00, 0.00, -0.00, -1.00, 154.0, 410.0)"> </text><text xml:space="preserve" font-family="CourierNewPSMT" font-size="30.0" fill="#000000" transform="matrix(1.00, 0.00, -0.00, -1.00, 172.0, 410.0)">i</text><text xml:space="preserve" font-family="CourierNewPSMT" font-size="30.0" fill="#000000" transform="matrix(1.00, 0.00, -0.00, -1.00, 190.0, 410.0)">s</text><text xml:space="preserve" font-family="CourierNewPSMT" font-size="30.0" fill="#000000" transform="matrix(1.00, 0.00, -0.00, -1.00, 208.0, 410.0)"> </text><text xml:space="preserve" font-family="CourierNewPSMT" font-size="30.0" fill="#000000" transform="matrix(1.00, 0.00, -0.00, -1.00, 226.1, 410.0)">t</text><text xml:space="preserve" font-family="CourierNewPSMT" font-size="30.0" fill="#000000" transform="matrix(1.00, 0.00, -0.00, -1.00, 244.1, 410.0)">h</text><text xml:space="preserve" font-family="CourierNewPSMT" font-size="30.0" fill="#000000" transform="matrix(1.00, 0.00, -0.00, -1.00, 262.1, 410.0)">e</text><text xml:space="preserve" font-family="CourierNewPSMT" font-size="30.0" fill="#000000" transform="matrix(1.00, 0.00, -0.00, -1.00, 280.1, 410.0)"> </text><text xml:space="preserve" font-family="CourierNewPSMT" font-size="30.0" fill="#000000" transform="matrix(1.00, 0.00, -0.00, -1.00, 298.1, 410.0)">b</text><text xml:space="preserve" font-family="CourierNewPSMT" font-size="30.0" fill="#000000" transform="matrix(1.00, 0.00, -0.00, -1.00, 316.1, 410.0)">a</text><text xml:space="preserve" font-family="CourierNewPSMT" font-size="30.0" fill="#000000" transform="matrix(1.00, 0.00, -0.00, -1.00, 334.1, 410.0)">n</text><text xml:space="preserve" font-family="CourierNewPSMT" font-size="30.0" fill="#000000" transform="matrix(1.00, 0.00, -0.00, -1.00, 352.1, 410.0)">g</text><text xml:space="preserve" font-family="CourierNewPSMT" font-size="30.0" fill="#000000" transform="matrix(1.00, 0.00, -0.00, -1.00, 370.1, 410.0)">?</text></g></g><path d="M 997.3 490.3 L 997.3 475.3 L 953.7 497.3 L 997.3 519.3 L 997.3 504.3 L 997.3 504.3 L 997.3 490.3 Z M 997.3 490.3 " fill="#FEFFFE"></path><text xml:space="preserve" font-family="Helvetica-Light" font-size="38.0" fill="#FEFFFF" transform="matrix(1.00, 0.00, -0.00, -1.00, 446.0, 717.0)">P</text><text xml:space="preserve" font-family="Helvetica-Light" font-size="38.0" fill="#FEFFFF" transform="matrix(1.00, 0.00, -0.00, -1.00, 469.2, 717.0)">r</text><text xml:space="preserve" font-family="Helvetica-Light" font-size="38.0" fill="#FEFFFF" transform="matrix(1.00, 0.00, -0.00, -1.00, 481.2, 717.0)">o</text><text xml:space="preserve" font-family="Helvetica-Light" font-size="38.0" fill="#FEFFFF" transform="matrix(1.00, 0.00, -0.00, -1.00, 502.3, 717.0)">g</text><text xml:space="preserve" font-family="Helvetica-Light" font-size="38.0" fill="#FEFFFF" transform="matrix(1.00, 0.00, -0.00, -1.00, 525.5, 717.0)">r</text><text xml:space="preserve" font-family="Helvetica-Light" font-size="38.0" fill="#FEFFFF" transform="matrix(1.00, 0.00, -0.00, -1.00, 538.2, 717.0)">a</text><text xml:space="preserve" font-family="Helvetica-Light" font-size="38.0" fill="#FEFFFF" transform="matrix(1.00, 0.00, -0.00, -1.00, 559.3, 717.0)">m</text></g></svg>